<svg xmlns="http://www.w3.org/2000/svg" xml:space="preserve" viewBox="0 0 1254 1254"><path fill="none" d="M866 1255H1V1h1254v1254zM661.43 565.818c-.465-.3-.931-.6-1.672-1.503-4.147-4.352-8.294-8.704-11.617-13.239 3.194-1.872 2.347-4.26.148-5.866-.614-.45-2.992 1.516-5.147 2.005-3.523-3.69-7.047-7.381-9.828-11.205.123-1.269.841-3.046.267-3.718-2.666-3.117-5.764-5.859-8.574-8.86-8.473-9.05-16.743-18.294-25.356-27.207-9.432-9.759-19.158-19.232-28.756-28.83-13.408-13.408-26.82-26.811-40.221-40.225-6.289-6.293-12.68-12.49-18.805-18.938-7.161-7.54-13.887-15.497-21.152-22.93-13.035-13.336-26.204-26.547-39.557-39.564-11.607-11.316-23.466-22.377-35.39-33.359-2.992-2.756-6.488-5.09-10.054-7.077-11.201-6.244-22.312-12.736-33.924-18.129-6.991-3.246-14.847-4.635-22.319-6.841-5.037-1.488-7.888-.278-9.355 3.694-6.77-.345-13.54-.938-20.312-.964-6.6-.026-13.203.53-19.716.105 1.085-2.4.264-3.436-2.298-3.161-6.118.656-11.94 1.853-17.626 4.734-6.21 3.148-13.421 4.312-19.664 7.412-10.332 5.132-20.744 10.329-28.562 19.34-4.223 4.867-8.43 9.878-13.345 13.984-8.963 7.488-14.39 17.392-19.962 27.221-3.23 5.7-5.85 11.744-8.783 17.614-1.218 2.439-1.042 4.177 2.252 5.167-.09.325-.18.649-1.129.722-4.816.861-5.093 1.86-1.96 7.702-3.02 9.601-5.09 19.37-6.084 29.266l-2.807 2.18c1.162.51 2.324 1.018 3.545 2.482-.174 2.99-.5 5.982-.5 8.973-.012 69.61.058 139.221.01 208.832-.03 42.786-.227 85.573-1.108 128.393l-2.008 3.109c1.266.623 2.531 1.246 4.027 2.76.014 2.477-.393 5.046.12 7.417 1.754 8.112 3.22 16.366 5.928 24.174 4.136 11.931 8.246 24.053 14.168 35.13 5.73 10.72 13.737 20.224 20.718 31.074.64 1.915.856 4.154 2.015 5.673 1.966 2.575 4.68 4.566 6.794 7.046 1.99 2.337 4.094 3.006 7.238 2.176 2.759 2.564 5.191 5.655 8.332 7.6 14.428 8.94 28.879 17.668 45.294 22.985 21.465 6.952 43.212 9.218 65.462 6.664 17.53-2.012 34.21-7.455 49.98-15.216 9.083-4.471 17.703-9.974 26.194-15.528 6.646-4.348 12.773-9.487 19.981-14.182 3.107.205 3.88-1.554 3.731-4.694.199-.286.47-.458 1.192.084 1.157-.178 2.712.062 3.407-.6 4.877-4.65 9.664-9.406 14.253-14.338.802-.863.536-2.719 1.072-4.643.902-.826 1.804-1.653 2.997-1.815 3.02.173 7.55-3.683 7.459-6.436-.01-.276-.74-.529-.82-1.318.9-.81 1.802-1.618 3.514-2.287l2.31-.858c-.358-.437-.716-.875-.7-1.9 3.392-3.5 6.714-7.072 10.189-10.488 12.07-11.867 24.235-23.638 36.254-35.556 2.014-1.997 3.642-2.58 4.994-.105.394 1.15.644 2.38 1.212 3.437 1.096 2.038 2.599 3.883 3.5 5.994.715 1.67.388 4.947 1.215 5.194 2.504.747 5.703 1.442 7.698-1.702.712.517 1.424 1.034 2.534 1.956.144-.632.288-1.264.65-1.917 0 0 .171.138.99.1 1.01-.964 2.795-1.848 2.902-2.902.602-5.927 1.087-11.896 1.063-17.849-.031-7.62-.84-15.238-.841-22.858-.002-7.54.793-15.078.869-22.62.15-14.905.036-29.811.047-44.717.003-5.606-2.349-9.287-6.584-9.673-3.732-.34-7.5-.374-11.253-.383-16.325-.037-32.65-.016-48.974-.016-16.325 0-32.65-.03-48.974.027-2.924.01-6.444-.46-6.088 4.984 4.103 4.306 8.142 8.677 12.338 12.89 1.975 1.985 1.958 3.549-.081 5.423-3.064 2.817-6.018 5.754-8.983 8.676-22.418 22.097-44.759 44.273-67.261 66.284-19.01 18.594-45.083 18.34-61.367-.612-8.222-9.57-14.113-20.301-13.89-33.9-.143-.297-.286-.594-.53-1.807-.018-28.15-.053-56.3-.05-84.449.008-71.29.072-142.58.006-213.87-.008-9.059 1.673-17.396 7.765-24.397 3.862-4.44 8.26-8.223 14.535-8.172 4.788.039 9.572.672 14.795 1.555 3.814 2.615 8.13 4.726 11.355 7.933 13.433 13.356 26.517 27.064 39.77 40.602 14.175 14.481 28.397 28.918 42.879 43.929.79.666 1.582 1.333 2.568 2.51.657.59 1.313 1.18 2.302 2.414 1.253 1.331 2.488 2.68 3.76 3.991 26.725 27.568 53.41 55.173 80.197 82.68 16.11 16.542 32.377 32.93 48.835 50.015 16.146 16.711 32.292 33.422 47.812 50.424.745 1.813 1.063 4.02 2.31 5.367 4.706 5.084 9.653 9.95 14.622 14.782a2196 2196 0 0 0 25.496 24.431c1.089 1.025 2.79 1.4 4.614 2.57 4.085 3.893 8.17 7.785 12.344 12.351 1.82 2.113 3.516 4.347 5.477 6.32 12.867 12.936 25.75 25.858 38.718 38.692 4.693 4.643 9.638 9.03 14.748 14.127 4.541 4.429 9.082 8.857 13.828 13.939 3.309 3.003 6.617 6.007 10.084 9.336 0 0 .333.144.652.67.909.809 1.817 1.618 2.966 3.027.403.47.805.94 1.478 2.012 5.531 5.523 10.912 11.207 16.631 16.529 6.892 6.413 14.071 12.519 21.411 19.37 3.43 2.512 6.846 5.047 10.295 7.533 13.69 9.87 28.805 17.016 44.646 22.539 6.684 2.33 13.824 3.352 21.583 5.094 4.995.699 9.977 1.857 14.988 2 10.842.31 21.952 1.563 32.487-.258 13.75-2.377 27.347-6.568 40.442-11.487 8.934-3.356 16.898-9.292 25.295-14.074l.638-.068c.785-.644 1.57-1.29 3-2.168 4.455-3.586 8.91-7.173 13.972-11.033 3.172-3.23 6.345-6.46 10.112-9.98 5.803-7.398 12.1-14.465 17.323-22.251 19.795-29.504 28.914-62.374 28.96-97.71.141-106.967.142-213.935-.068-320.903-.02-10.381-1.107-20.903-3.018-31.113-7.847-41.937-29.558-74.887-65.726-97.798-24.989-15.829-52.767-20.308-81.724-17.56-20.331 1.929-39.565 8.497-56.947 19.111-11.136 6.8-21.066 15.577-32.148 23.738-7.203 7.16-14.384 14.345-21.615 21.477-13.608 13.423-27.245 26.815-41.437 40.57-2.12 2.199-4.24 4.398-6.962 6.882-2.104 1.97-4.207 3.942-6.717 5.358-1.044.157-2.4-.049-3.074.535-2.475 2.145-4.703 4.573-7.062 6.856-9.32 9.02-18.676 18.004-27.976 27.045-4.144 4.029-7.967 8.418-12.344 12.166-3.544 3.034-7.7 5.354-12.129 7.666-1.697-1.914-3.395-3.829-5.005-6.443.858-4.562-.08-5.395-5.57-4.701-1.813-1.693-3.627-3.386-5.666-5.397-.338.252-.676.504-1.908.809-.636 1.16-1.716 2.275-1.836 3.486-1.087 10.982-1.898 21.875-1.354 33.045 1.228 25.194.986 50.46 1.247 75.699.047 4.565 1.971 6.645 6.595 6.719 14.341.23 28.678.778 43.02.897 6.606.055 13.216-.808 19.83-.89 12.552-.154 25.108-.081 37.663-.019 3.101.016 5.394-.523 4.68-5.02-1.268-1.661-2.537-3.322-3.262-5.406-.56-1.984-1.122-3.967-1.352-6.518 1.486-1.31 2.973-2.622 4.831-3.174l4.27.136c-.448-1.41-.896-2.819-1.06-4.825 4.723-4.752 9.446-9.504 14.424-14.404.159-.123.278-.277.932-.858 3.834-3.962 7.668-7.924 12.11-12.166 10.277-10.204 20.553-20.409 31.391-30.918 16.037-15.868 32.074-31.736 48.7-47.926 1.818-1.627 3.636-3.254 6.223-4.921 5.748-.886 10.757-3.026 14.646-8.694 5.172.448 10.344.897 15.444 2.16.367 3.215 6.18 10.703 9.056 11.288.897.183 1.992-.61 3.556-.472 1.108 3.564 2.216 7.129 2.585 10.784-1.083 2.218-2.972 4.39-3.099 6.661-.403 7.216-.149 14.468-.149 21.706V740.11c0 1.331-.46 2.927.112 3.933.88 1.548 2.473 2.691 3.997 3.959 0 0 .228-.072-.057.758-.694 3.748-1.388 7.496-2.45 11.87-1.257 3.096-2.514 6.191-4.246 9.748-2.024 2.723-4.048 5.446-6.418 7.534l-3.105.864c.284.855.569 1.71.431 3.129-9.142 9.38-20.413 12.899-33.772 11.94-.176.022-.351.045-.988-.128-.163-.031-.327-.062-.687-.734-.795-.256-1.59-.512-3.125-.73-4.498-1.901-8.995-3.803-13.904-6.193-9.275-8.918-18.55-17.836-27.876-27.503-.733-.48-1.466-.962-2.733-1.778-.678-.797-1.356-1.593-1.325-2.693-.287-1.196-.189-2.752-.92-3.533-7.572-8.094-15.13-16.211-22.984-24.03-10.896-10.848-21.998-21.493-33.14-32.088-1.28-1.217-3.388-1.563-5.678-2.625-6.98-6.96-13.96-13.919-21.25-21.48-2.26-2.192-4.522-4.384-7.028-7.134-1.178-1.096-2.356-2.191-3.85-3.898-5.053-5.3-10.105-10.6-15.074-16.737.194-5.106-3.002-6.374-7.756-6.655-.438-.29-.877-.579-1.575-1.434-1.24-1.389-2.48-2.777-3.653-4.981-.636-6.457-3.555-9.183-10.604-9.652-.6-.681-1.202-1.363-1.59-2.858.427-5.313-4.007-7.422-7.048-10.372-.343-.332-1.99.68-3.6.67-3.682-3.815-7.364-7.63-10.99-12.121.647-4.043-6.403-12.674-10.402-12.61-.387.006-.76.934-1.757 1.074-3.977-3.895-7.954-7.79-11.976-12.102 0 0-.032-.418.238-1.046.05-4.599-1.192-5.652-5.787-4.656M316.596 281h17.183c-5.887-5.1-21.383-4.978-26.075 0z"/><path fill="#0f2340" d="M561.925 804.43c-.712-.517-1.424-1.034-2.54-2.066-4.43-4.587-8.458-8.659-12.486-12.731-2.087-2.152-3.715-1.57-5.729.428-12.019 11.918-24.184 23.689-36.254 35.556-3.475 3.416-6.797 6.988-10.642 10.91a50 50 0 0 0-1.968 2.196c-.901.809-1.803 1.618-3.133 2.833-2.453 2.5-4.476 4.592-6.5 6.684l-3.17 2.906a9015 9015 0 0 0-18.647 18.556c-.343.056-.614.228-1.203.885-1.658 1.657-2.924 2.944-4.191 4.23-6.358 4.788-12.485 9.927-19.13 14.275-8.492 5.554-17.112 11.057-26.196 15.528-15.769 7.761-32.449 13.204-49.979 15.216-22.25 2.554-43.997.288-65.462-6.664-16.415-5.317-30.866-14.045-45.294-22.984-3.141-1.946-5.573-5.037-8.643-8.183-5.444-5.43-10.577-10.278-15.71-15.126-7.007-10.037-15.013-19.54-20.744-30.26-5.922-11.078-10.032-23.2-14.168-35.13-2.707-7.809-4.174-16.063-5.928-24.175-.513-2.37-.106-4.94-.169-8.238-.436-2.24-.824-3.66-1.212-5.082.123-42.786.32-85.573.35-128.36.048-69.61-.022-139.22-.01-208.831 0-2.991.326-5.982.576-9.789.074-1.752.073-2.69.071-3.626.109-10.115 2.18-19.885 5.57-30.046 1.062-2.67 1.754-4.78 2.447-6.89.09-.325.18-.65.338-1.553 3.715-7.92 7.17-15.362 11.05-22.578 10.014-18.62 23.535-34.31 41.188-45.957 8.356-5.513 17.724-9.49 26.62-13.795.453 1.26.814 2.845 1.4 2.933 4.657.699 10.31-3.257 11.98-8.032 2.781-.55 5.186-.93 7.598-.949 2.358 5.907 5.706 6.559 11.344 2.57 5.859-4.145 13.33-2.595 17.46 2.88 2.208 2.927 3.068 8.854 9.252 6.219.337 1.01 1.279 2.532.92 2.957-5.483 6.499-9.281 13.589-9.027 22.401.07 2.417-1.005 3.53-3.782 3.214-.932-.106-3.12 2.025-2.976 2.814.609 3.343 1.183 7.068 3.089 9.7 2.207 3.047 2.315 4.296-1.105 5.985-.834.412-1.308 3.779-1.01 3.929 5.223 2.635 2.011 6.8 2.56 10.117l-6.42 1.016c11.542 7.138 11.548 6.631 11.411 11.393 2.922 1.874 5.303 2.964 7.115 4.663 2.728 2.558 5.056 5.542 7.557 8.342.84.94 1.913 1.752 2.487 2.831 1.165 2.188 2.063 4.519 3.026 6.69-.543 1.752-1.648 3.71-1.66 5.676-.031 4.731.45 9.466.724 14.2-4.786-.37-9.57-1.002-14.358-1.041-6.276-.051-10.673 3.733-14.535 8.172-6.092 7.001-7.773 15.338-7.765 24.396.066 71.29.002 142.58-.006 213.871-.003 28.15.032 56.3-.014 85.14.083.99.23 1.288.377 1.586-.006 13.129 5.885 23.86 14.107 33.43 16.284 18.952 42.357 19.206 61.367.612 22.502-22.01 44.843-44.187 67.26-66.284 2.966-2.922 5.92-5.86 8.984-8.676 2.04-1.874 2.056-3.438.08-5.422-4.195-4.215-8.234-8.585-11.883-13.158 38.997-.267 77.54-.267 116.39-.267 0 6.89-.009 13.04.002 19.19.053 32.464.112 64.927.168 97.39 0 0-.17-.14-.5.068-.458.573-.589.94-.719 1.305"/><path fill="#8c7c48" d="M901.193 422.066c-1.819 1.626-3.637 3.253-5.906 4.696-2.137-4.292-5.414-5.439-9.394-4.534-7.632 1.734-8.58 1.093-10.8-6.204-2.136-7.026-4.723-13.918-7.215-20.832-.374-1.038-1.511-1.787-1.954-2.817-1.716-3.99-4.396-7.963-4.683-12.085-.517-7.425-4.358-12.628-9.309-17.154-2.673-2.444-3.817-4.583-2.09-7.668 2.017-3.602.57-6.138-1.718-8.953-3.03-3.727-7.033-6.555-8.538-11.745-.953-3.287-4.317-5.874-6.6-8.775 10.47-7.89 20.4-16.668 31.536-23.468 17.382-10.614 36.616-17.182 56.947-19.111 28.957-2.748 56.735 1.731 81.724 17.56 36.168 22.911 57.879 55.861 65.726 97.798 1.911 10.21 2.998 20.732 3.018 31.113.21 106.968.21 213.936.068 320.904-.046 35.335-9.165 68.205-28.96 97.709-5.224 7.786-11.52 14.853-18.018 22.383-7.765 1.187-11.475 5.158-10.024 10.122-4.455 3.586-8.91 7.173-14.041 10.885-1.438.787-2.2 1.448-2.962 2.11l-.386.001c-2.6-.985-5.012-1.68-6.992-3.014-5.843-3.934-11.03-8.742-17.874-11.28-3.682-1.366-6.782-4.302-10.981-7.083 7.946-3.708 1.94-5.069-.67-7.83 7.133-3.358 9.235-9.026 9.984-16.29.648-6.286-.592-12.845-4.088-16.023-5.182-4.708-5.15-10.348-5.61-15.461-.509-5.636-1.35-8.903-7.26-10.677-4.878-1.465-4.829-3.254-1.885-7.182 1.036-1.382 1.386-3.262 2.158-4.863 1.234-2.559 2.863-4.972 3.752-7.639.798-2.395.824-5.047 1.19-7.586-1.692-.104-3.387-.187-5.076-.333-.283-.025-.543-.325-.81-.503-1.04-7.269-1.041-7.245-9.316-7.43-.775-.017-1.537-.58-2.305-.89 1.257-3.096 2.514-6.19 4.318-9.661 2.596-4.152 5.973-7.747 2.188-12.326 0 0-.228.072-.205-.226.287-1.43.55-2.563 1.185-3.767 2.414-2.3 2.761-4.325-.396-6.404-.074-97.857-.075-195.25-.124-292.644-.001-2.63-.529-5.26-.81-7.889-1.108-3.564-2.216-7.129-3.669-11.266-3.206-5.299-6.603-9.42-12.196-11.058-5.171-.448-10.343-.897-16.243-1.091-5.381 2.996-10.034 5.739-14.686 8.48"/><path fill="#223141" d="M574.812 648.079c-16.197-16.458-32.465-32.846-48.574-49.389-26.786-27.506-53.472-55.111-80.196-82.679-1.273-1.312-2.508-2.66-3.449-4.396 4.436-.615 8.029.293 11.136 3.399 1.1 1.098 3.396 1.141 5.184 1.368 1.709.217 3.467.047 5.203.047 7.29-2.212 9.745-10.633 4.626-17.897-3.538-5.02-4.131-9.265-1.35-13.116-2.568-5.3-4.952-9.73-6.864-14.355-1.12-2.71-2.112-5.745-2.053-8.611.108-5.224.243-10.163-4.333-13.843-1.5-1.206-2.817-2.637-4.218-3.966l1.359-.318c0-1.998-.185-4.02.072-5.984.145-1.105.785-2.395 1.624-3.095 1.045-.872 2.526-1.22 3.677-1.731-1.243-2.626-3.14-4.813-3.095-6.96.068-3.27 1.507-6.506 2.294-9.773.15-.618.198-1.43-.08-1.955-3.012-5.69-.659-9.057 4.51-11.771 3.982-2.09 3.702-5.36-.006-7.945-1.093-.761-2.041-2.407-2.17-3.733-.254-2.614.24-5.291.16-7.935-.032-1.09-.628-3.029-1.167-3.1-4.732-.637-4.555-3.349-3.47-6.881.269-.877-.298-2.233-.873-3.11-5.043-7.693-5.07-7.677 2.439-12.9.27-.189.581-.319 1.146-.379.74.692 1.208 1.286 1.785 2.108.379.418.65.61 1.227.93 20.6 20.792 40.885 41.463 61.19 62.115 12.746 12.965 25.522 25.9 38.459 39.138 4.075 4.16 7.978 8.032 12.008 12.19 1.362 1.683 2.597 3.079 3.446 4.47-3.751 1.74-5.087 5.565-2.33 7.214 4.17 2.495 4.977 6.01 5.6 10.099.518 3.404.942 6.893 2.058 10.12 1.98 5.718-.393 10.982-1.06 16.426-.639 5.219-4.842 10.771 1.606 15.322.475.335.323 1.848.155 2.757-1.311 7.092-3.169 14.12-3.932 21.267-.81 7.574-1.825 14.94 3.608 22.272 3.132 4.227 2.465 11.27 3.494 17.048.025.138-.098.318-.186.457-4.074 6.464-1.68 13.168-.633 19.782.295 1.87.738 4.181 1.99 5.352 5.278 4.93 2.561 10.026.909 15.22-1.727 5.426-5.293 7.717-10.926 6.72"/><path fill="#182940" d="M456.072 356.974c-.293.157-.604.287-.874.475-7.509 5.224-7.482 5.208-2.44 12.9.576.878 1.143 2.234.874 3.11-1.085 3.533-1.262 6.245 3.47 6.881.54.072 1.135 2.012 1.168 3.101.079 2.644-.415 5.321-.16 7.935.128 1.326 1.076 2.972 2.169 3.733 3.708 2.585 3.988 5.854.007 7.945-5.17 2.714-7.523 6.082-4.511 11.77.278.526.23 1.338.08 1.956-.787 3.267-2.226 6.503-2.294 9.773-.044 2.147 1.852 4.334 3.095 6.96-1.15.511-2.632.86-3.677 1.73-.84.7-1.48 1.991-1.624 3.096-.257 1.964-.072 3.986-.072 5.984l-1.359.318c1.401 1.329 2.718 2.76 4.218 3.966 4.576 3.68 4.441 8.619 4.333 13.843-.06 2.866.934 5.9 2.053 8.61 1.912 4.626 4.296 9.056 6.863 14.356-2.78 3.85-2.187 8.096 1.35 13.116 5.12 7.264 2.665 15.685-4.625 17.897-1.736 0-3.494.17-5.203-.047-1.788-.227-4.084-.27-5.184-1.368-3.107-3.106-6.7-4.014-11.302-3.722-1.135-.506-1.791-1.096-2.258-2.147-.887-1.176-1.963-1.89-3.04-2.605-14.2-14.455-28.422-28.892-42.597-43.373-13.253-13.538-26.337-27.246-39.77-40.602-3.226-3.207-7.54-5.318-11.573-8.19-.494-4.991-.974-9.726-.944-14.457.013-1.965 1.118-3.924 1.661-5.675-.963-2.172-1.86-4.503-3.026-6.69-.574-1.08-1.647-1.892-2.487-2.832-2.501-2.8-4.83-5.784-7.557-8.342-1.812-1.699-4.193-2.79-7.115-4.663.137-4.762.13-4.255-11.412-11.393l6.42-1.016c-.548-3.317 2.664-7.482-2.56-10.117-.297-.15.177-3.517 1.011-3.929 3.42-1.689 3.312-2.938 1.105-5.986-1.906-2.63-2.48-6.356-3.089-9.699-.143-.789 2.044-2.92 2.976-2.814 2.777.316 3.852-.797 3.782-3.214-.254-8.812 3.544-15.902 9.028-22.401.358-.425-.584-1.946-.921-2.957-6.184 2.635-7.044-3.292-9.252-6.219-4.13-5.475-11.601-7.025-17.46-2.88-5.638 3.989-8.986 3.337-10.981-2.735 2.781-1.172 5.207-1.818 7.634-2.464 6.601-.3 13.204-.856 19.804-.83 6.772.026 13.541.62 21.106 1.106 4.765 1.035 8.716 2.028 12.709 2.805 15.357 2.987 29.289 9.551 42.75 17.179 23.614 13.38 40.978 33.882 59.7 52.822m-3.506 100.32-.813-.851c-.118.112-.344.316-.337.324.253.3.527.58 1.15.528"/><path fill="#807347" d="M941.593 770.147c1.006.08 1.768.643 2.543.66 8.275.185 8.275.161 9.316 7.43.267.178.527.478.81.503 1.69.146 3.384.229 5.077.333-.367 2.539-.393 5.191-1.191 7.586-.889 2.667-2.518 5.08-3.752 7.64-.772 1.6-1.122 3.48-2.158 4.862-2.944 3.928-2.993 5.717 1.885 7.182 5.91 1.774 6.751 5.041 7.26 10.677.46 5.113.428 10.753 5.61 15.461 3.496 3.178 4.736 9.737 4.088 16.023-.749 7.264-2.85 12.932-9.984 16.29 2.61 2.761 8.616 4.122.67 7.83 4.2 2.781 7.3 5.717 10.981 7.083 6.843 2.538 12.031 7.346 17.874 11.28 1.98 1.333 4.391 2.029 6.992 3.014-8.011 4.781-15.975 10.717-24.909 14.073-13.095 4.919-26.691 9.11-40.442 11.487-10.535 1.82-21.645.569-32.487.258-5.011-.143-9.993-1.301-15.45-2.39-1.619-1.425-2.777-2.457-4.127-3.661.467-.616.835-1.398 1.447-1.859 5.253-3.955 4.828-8.908 2.692-14.26-.604-1.513-1.089-3.124-1.299-4.733-1.634-12.524-3.45-25.033-4.67-37.6-.776-8.003-1.228-16.078 2.633-23.782 1.001-1.998.948-5.766-.317-7.438-4.708-6.225-2.254-11.245 1.857-16.018 2.769-3.215 2.898-6.413.48-9.388-3.02-3.715-3.416-7.74-2.823-12.141 4.498 1.901 8.995 3.803 14.035 5.98 1.287.548 2.033.821 2.78 1.095.163.03.327.062.809.37.606.182.894.088 1.182-.007 12.846.817 24.117-2.703 33.718-12.482 1.16-1.253 1.86-2.105 2.562-2.958 2.023-2.723 4.047-5.446 6.308-8.4m-54.077 146.26s.07.112 0 0"/><path fill="#484c43" d="M740.934 817.176c-4.83-4.503-9.775-8.89-14.468-13.533-12.969-12.834-25.85-25.756-38.718-38.693-1.96-1.972-3.658-4.206-5.19-6.602 2.658 1.645 5.027 3.573 7.397 5.5l1.325-.678-2.487-8.133c-6.68 1.68-6.725 1.66-10.415-4.13l3.99-3.688c-6.29.274-6.283-3.333-4.973-6.577 4.103-10.168.748-18.622-5.036-26.894-3.168-4.53-6.327-10.435-3.122-15.1 2.774-4.036 4.07-8.03 5.15-12.408 2.492-10.093 2.593-19.959-2.718-29.39-.608-1.08.012-2.822-.039-4.254-.105-2.927.878-7.029-.658-8.539-3.496-3.436-3.324-6.89-3.126-11.096.148-3.173-1.483-6.393-1.654-9.628-.299-5.647-.083-11.32-.083-17.647-.28.267.196-.01.41-.423.836-1.615 1.59-3.272 2.375-4.914-1.424-.588-2.852-1.166-4.27-1.769-.56-.238-1.234-.405-1.621-.822-2.393-2.578-1.77-14.81.287-17.714 1.691-2.386 2.522-5.381 3.734-8.106 3.977 3.894 7.954 7.79 12.36 12.132 4.177 4.22 7.925 7.991 11.673 11.763 3.683 3.815 7.365 7.63 11.472 11.919 2.797 3.056 5.17 5.638 7.232 8.373-1.911 1.883-3.879 3.75-1.106 5.866 2.205 1.684 4.6 1.775 6.638-.828 2.412 2.379 4.527 4.615 6.337 7.018-1.241 2.039-2.448 3.827-3.052 5.8-1.04 3.399.664 6.197 3.789 6.735 3.132.54 7.388 1.627 8.87-3.369 1.695 1.657 3.11 3.174 4.226 4.85-3.71 1.912-8.41 2.536-8.38 7.664.024 3.86.796 7.714 1.237 11.599l4.146-1.264.798 1.169-8.393 8.514c.906 1.066 1.816 2.202 2.792 3.276 3.398 3.74 3.309 5.514-.491 8.84-3.203 2.804-3.123 10.387.142 13.57 4.146 4.04 3.894 5.975-1.09 8.843-.81.466-1.5 1.14-1.974 1.507.92 4.305 1.742 8.142 2.3 10.75.376 3.586-.185 6.558 1.046 8.088 2.043 2.54 2.36 4.581 1.712 7.657-.34 1.612 1.005 4.706 2.412 5.359 5.411 2.512 8.482 8.268 7.752 14.55-.834 7.183-1.61 14.467-1.294 21.659.265 6.02 1.773 12.072 3.416 17.917 1.242 4.425.91 9.544 5.322 12.985.886.691.081 4.501-.893 6.382-1.163 2.247-3.347 3.966-5.089 5.914"/><path fill="#6a6445" d="M879.994 786.304c-.388 4.645.008 8.671 3.028 12.386 2.418 2.975 2.289 6.173-.48 9.388-4.111 4.773-6.565 9.793-1.857 16.018 1.265 1.672 1.318 5.44.317 7.438-3.861 7.704-3.41 15.779-2.633 23.782 1.22 12.567 3.036 25.076 4.67 37.6.21 1.61.695 3.22 1.299 4.732 2.136 5.353 2.56 10.306-2.692 14.261-.612.46-.98 1.243-1.447 1.859 1.35 1.204 2.508 2.236 3.714 3.597-6.884-1.288-14.024-2.31-20.708-4.64-15.84-5.523-30.956-12.67-44.646-22.539-3.45-2.486-6.864-5.021-10.18-8.13 7.553-1.71 11.905-5.935 11.647-11.294-.171-3.566.282-7.163.471-10.745.105-1.975.86-4.168.25-5.883-2.014-5.677-4.8-11.089-6.679-16.804-.685-2.085-.557-5.904.757-6.92 4.932-3.816 4.55-8.148 3.354-13.375-.712-3.106-1.257-7.394.298-9.655 4.075-5.93 2.903-12.048 1.937-18.035-.581-3.601-1.814-6.576 1.732-9.253.691-.522.91-2.177.761-3.226-1.197-8.413 1.183-16.532 1.743-24.788.383-5.647 3.38-9.089 7.407-12.27 5.202 4.966 10.145 9.774 15.088 14.581.678.797 1.356 1.593 2.428 2.858a33 33 0 0 0 2.39 2.06c9.275 8.917 18.55 17.835 28.03 26.997"/><path fill="#5b5944" d="M831.797 739.65c-3.766 3.34-6.764 6.781-7.147 12.428-.56 8.256-2.94 16.375-1.743 24.788.15 1.049-.07 2.704-.761 3.226-3.546 2.677-2.313 5.652-1.732 9.253.966 5.987 2.138 12.106-1.937 18.035-1.555 2.261-1.01 6.549-.298 9.655 1.197 5.227 1.578 9.559-3.354 13.375-1.314 1.016-1.442 4.835-.757 6.92 1.878 5.715 4.665 11.127 6.68 16.804.608 1.715-.146 3.908-.25 5.883-.19 3.582-.643 7.179-.472 10.745.258 5.359-4.094 9.584-11.789 10.987-7.313-5.947-14.492-12.053-21.384-18.466-5.719-5.322-11.1-11.006-16.748-17.188-.114-1.137-.11-1.615.1-2.373 2.317-1.23 4.789-1.785 6.413-3.267 1.154-1.054 2.134-4.395 1.542-4.949-7.364-6.88-6.299-16.73-8.944-25.165-1.754-5.594-1.44-11.838-2.023-17.794-.027-.284.217-.594.404-1.067h3.517c-2.067-2.466-4.463-4.653-5.996-7.334-1.703-2.977-2.826-6.342-3.808-9.655-.756-2.55-1.362-5.303-1.237-7.927.423-8.835 7.976-16.495 4.39-26.06-.073-.197.237-.63.471-.835 3.198-2.788 1.958-5.473.005-8.329-1.672-2.446-1.453-4.62 1.485-6.157.687-.36 1.04-1.36 1.9-2.56-7.224-.61-5.218-5.608-5.259-9.448-.046-4.339 2.865-5.259 6.427-4.6-.557-7.716-1.067-15.05-1.652-22.377-.048-.596-.662-1.127-.92-1.728-1.476-3.453-3.078-6.866-4.264-10.417-.262-.782.985-2.068 1.537-3.121 6.98 6.96 13.96 13.919 21.354 21.35 1.55 1.674 2.664 2.897 3.822 4.078 14.14 14.434 28.284 28.861 42.428 43.29"/><path fill="#3e4543" d="M667.002 571.729c-1.19 2.934-2.02 5.93-3.712 8.315-2.058 2.904-2.68 15.136-.287 17.714.387.417 1.061.584 1.622.822 1.417.603 2.845 1.18 4.27 1.769-.786 1.642-1.54 3.3-2.377 4.914-.213.413-.688.69-.41.423 0 6.326-.215 12 .084 17.647.171 3.235 1.802 6.455 1.654 9.628-.198 4.206-.37 7.66 3.126 11.096 1.536 1.51.553 5.612.658 8.54.051 1.43-.57 3.173.04 4.254 5.31 9.43 5.209 19.296 2.718 29.39-1.08 4.377-2.377 8.371-5.151 12.408-3.205 4.664-.046 10.569 3.122 15.099 5.784 8.272 9.139 16.726 5.036 26.894-1.31 3.244-1.318 6.85 4.973 6.577l-3.99 3.688c3.69 5.79 3.735 5.81 10.415 4.13l2.487 8.133-1.325.678c-2.37-1.927-4.74-3.855-7.441-5.837-4.417-3.946-8.502-7.838-12.954-12.284-13.495-14.086-26.623-27.618-39.689-41.537.312-.998.45-1.688.827-2.206 5.947-8.198 5.532-17.34-1.362-25.12-3.54-3.996-5.954-7.968-2.422-13.253.799-1.196 1.126-2.787 1.391-4.247 1.006-5.552 2.397-10.998-4.014-14.918-1.86-1.137-3.56-5.034-3.05-7.104 1.919-7.795-1.171-14.02-4.131-20.772-1.534-3.499-.8-8.131-.538-12.216.118-1.846 2.101-3.541 2.339-5.418.768-6.077 2.366-12.215-.649-18.265-.412-.828.604-3 1.576-3.77 3.332-2.638 2.319-5.29.828-8.354-.784-1.61-1.501-3.73-1.115-5.348 1.66-6.96 5.089-13.696 1.534-21.066-.332-.689.3-1.842.486-2.78l1.223.932c2.354-2.085 4.708-4.171 7.329-6.14a43 43 0 0 1 2.449 1.998c3.523 3.69 7.047 7.381 10.989 11.517a283 283 0 0 0 3.755 3.6c4.148 4.351 8.295 8.703 12.576 13.739 1.16 1.442 2.185 2.2 3.492 3.095 1.376 1.094 2.47 2.05 3.563 3.008 0 0 .032.418.055.627"/><path fill="#686245" d="M815.039 506.07c-3.834 3.962-7.668 7.924-11.987 12.051-.787.316-.86.54-.702.84-4.723 4.753-9.446 9.505-14.581 14.704-1.332 1.458-2.25 2.47-3.17 3.483a421 421 0 0 0-4.93 4.4c-1.026 1.47-1.582 2.473-2.477 3.543-4.916 1.162-4.244 4.75-4.493 8.244-2.805.167-5.259.157-7.734-.203-1.595-1.536-3.961-2.394-4.61-3.962-2.873-6.958-7.257-12.484-13.393-16.822-2.374-1.678-2.74-3.71-.062-6.097 2.14-1.906 3.483-4.647.335-7.222-.477-.39-.988-.996-1.077-1.566-1.663-10.694-5.936-21.11-3.297-32.29.306-1.295-.927-2.915-1.305-4.42-.686-2.731-1.671-5.47-1.798-8.238-.22-4.789.848-9.739-.013-14.362-.648-3.481-2.877-7.177-5.474-9.655-3.098-2.954-7.481-4.516-11.007-7.092-1.23-.9-1.568-3.021-2.176-4.883 11.746-12.004 23.354-23.71 34.962-35.416 2.103-1.971 4.206-3.942 6.823-5.775 4.644-1.39 8.518-.447 12.585.827 4.282 1.343 5.515 3.925 5.655 8.1.106 3.175.707 6.577 2.053 9.423 3.51 7.42 5.205 15.081 6.109 23.25.575 5.195.687 11.115 5.556 15.348 1.831 1.591 3.634 6.156 2.731 7.415-3.065 4.272-1.608 8.49-1.606 12.816.002 5.663 4.453 8.806 7.26 12.724 1.807 2.525 5.415 3.713 8.046 5.724.734.561 1.494 2.282 1.166 2.852-2.857 4.962.971 8.357 2.61 12.259"/><path fill="#323c42" d="m629.857 534.028-7.063 6.257-1.223-.932c-.185.938-.818 2.091-.486 2.78 3.555 7.37.125 14.105-1.534 21.066-.386 1.619.331 3.738 1.115 5.348 1.49 3.064 2.504 5.716-.828 8.354-.972.77-1.988 2.942-1.576 3.77 3.015 6.05 1.417 12.188.649 18.265-.238 1.877-2.22 3.572-2.339 5.418-.261 4.085-.996 8.717.538 12.216 2.96 6.751 6.05 12.977 4.13 20.772-.51 2.07 1.19 5.967 3.05 7.104 6.412 3.92 5.021 9.366 4.015 14.918-.265 1.46-.592 3.051-1.391 4.247-3.532 5.285-1.119 9.257 2.422 13.253 6.894 7.78 7.309 16.922 1.362 25.12-.376.518-.515 1.208-1.139 2.056-2.266-1.575-4.157-3.388-6.048-5.2-16.146-16.712-32.292-33.423-48.569-50.448 5.503.683 9.07-1.608 10.796-7.034 1.652-5.194 4.369-10.29-.909-15.22-1.252-1.17-1.695-3.483-1.99-5.352-1.047-6.614-3.441-13.318.633-19.782.088-.139.21-.319.186-.457-1.029-5.778-.362-12.82-3.494-17.048-5.433-7.332-4.418-14.698-3.608-22.272.763-7.147 2.62-14.175 3.932-21.267.168-.909.32-2.422-.155-2.757-6.448-4.55-2.245-10.103-1.605-15.322.666-5.444 3.038-10.708 1.06-16.427-1.117-3.226-1.541-6.715-2.06-10.12-.622-4.087-1.43-7.603-5.599-10.098-2.757-1.65-1.421-5.474 2.617-7.095 1.187.749 1.703 1.376 2.24 2.36 2.522 2.743 5.022 5.13 7.746 7.719a80041 80041 0 0 1 45.125 45.808"/><path fill="#5a5844" d="M720.95 436.821c.746 1.564 1.083 3.686 2.314 4.585 3.526 2.576 7.91 4.138 11.007 7.092 2.597 2.478 4.826 6.174 5.474 9.655.861 4.623-.207 9.573.013 14.362.127 2.769 1.112 5.507 1.798 8.237.378 1.506 1.61 3.126 1.305 4.422-2.64 11.179 1.634 21.595 3.297 32.29.089.569.6 1.175 1.077 1.565 3.148 2.575 1.805 5.316-.335 7.222-2.679 2.386-2.312 4.419.062 6.097 6.136 4.338 10.52 9.864 13.394 16.822.648 1.568 3.014 2.426 4.153 4.003-29.596.392-58.757.392-88.372.392 0-4.388.007-7.846-.001-11.305-.065-26.754-.132-53.509-.129-80.687.015-2.14-.04-3.854-.02-6.032.172-5.51.269-10.559.564-15.777.296-.503.394-.835.492-1.167 1.813 1.693 3.627 3.386 5.865 5.52 1.969 1.948 3.513 3.454 5.057 4.96 1.698 1.914 3.396 3.829 5.56 6.239 1.762 1.635 3.058 2.774 5.287 4.733z"/><path fill="#807347" d="M832.68 326.13c2.589 2.766 5.953 5.353 6.906 8.64 1.505 5.19 5.508 8.018 8.538 11.745 2.288 2.815 3.735 5.35 1.718 8.953-1.727 3.085-.583 5.224 2.09 7.668 4.95 4.526 8.792 9.73 9.31 17.154.286 4.122 2.966 8.095 4.682 12.085.443 1.03 1.58 1.78 1.954 2.817 2.492 6.914 5.079 13.806 7.216 20.832 2.219 7.297 3.167 7.938 10.799 6.204 3.98-.905 7.257.242 9.1 4.695-15.881 16.213-31.918 32.081-48.589 47.96-6.008-7.824-11.024-15.937-16.862-23.408-5.185-6.635-5.78-13.122-2.1-20.408 2.113-4.183.399-8.662-3.716-10.719-1.706-.853-3.7-1.837-4.653-3.34-2.043-3.222-3.9-6.683-5.109-10.29-3.206-9.57-6.29-19.197-8.898-28.942-1.456-5.44-5.817-7.841-10.495-4.942-.937.581-2.14.716-3.168 1.172-2.441 1.085-5.157 1.85-7.202 3.456-2.987 2.348-5.301 5.545-8.262 7.935-1.639 1.323-4.01 1.74-6.05 2.565 13.625-13.405 27.262-26.797 40.87-40.22 7.231-7.132 14.412-14.316 21.921-21.612"/><path fill="#515244" d="M764.037 670.63c-.396 1.355-1.643 2.64-1.381 3.423 1.186 3.55 2.788 6.964 4.265 10.417.257.6.871 1.132.919 1.728.585 7.327 1.095 14.66 1.652 22.377-3.562-.659-6.473.261-6.427 4.6.041 3.84-1.965 8.838 5.26 9.448-.861 1.2-1.214 2.2-1.901 2.56-2.938 1.537-3.157 3.711-1.485 6.157 1.953 2.856 3.193 5.54-.005 8.33-.234.204-.544.637-.47.834 3.585 9.565-3.968 17.225-4.39 26.06-.126 2.624.48 5.377 1.236 7.927.982 3.313 2.105 6.678 3.808 9.655 1.533 2.681 3.93 4.868 5.996 7.334h-3.517c-.187.473-.431.783-.404 1.067.584 5.956.27 12.2 2.023 17.794 2.645 8.434 1.58 18.285 8.944 25.165.592.554-.388 3.895-1.542 4.949-1.624 1.482-4.096 2.036-6.787 3.296-.83.337-1.079.364-1.328.392-.908-.81-1.816-1.62-2.492-2.768 1.38-2.814 3.781-5.513 3.388-7.711-.62-3.462-4.255-4.128-7.63-3.6-.954.15-1.859.617-3.2.94-1.52.017-2.626.035-3.731.052-4.542-4.429-9.083-8.857-13.764-13.583 1.602-2.245 3.786-3.964 4.95-6.211.973-1.881 1.778-5.69.892-6.382-4.412-3.441-4.08-8.56-5.322-12.985-1.643-5.845-3.151-11.897-3.416-17.917-.316-7.192.46-14.476 1.294-21.659.73-6.282-2.34-12.038-7.752-14.55-1.407-.653-2.751-3.747-2.412-5.359.648-3.076.33-5.116-1.712-7.657-1.23-1.53-.67-4.502-1.047-8.089l-2.3-10.749c.476-.368 1.166-1.041 1.975-1.507 4.984-2.868 5.236-4.803 1.09-8.843-3.265-3.183-3.345-10.766-.142-13.57 3.8-3.326 3.889-5.1.491-8.84-.976-1.074-1.886-2.21-2.792-3.276l8.393-8.514-.798-1.17-4.146 1.265c-.441-3.885-1.213-7.74-1.236-11.599-.03-5.128 4.67-5.752 8.662-7.531 1.09.338 1.595.702 2.101 1.066 5.052 5.301 10.104 10.602 14.94 16.235-.96.77-1.701 1.208-2.443 1.646.986 1.424 1.725 3.228 3.068 4.102.616.401 2.421-1.026 3.687-1.624 2.261 2.191 4.522 4.383 6.938 6.875"/><path fill="#726946" d="M769.605 388.137c2.325-1 4.695-1.417 6.334-2.74 2.96-2.39 5.275-5.587 8.262-7.935 2.045-1.606 4.761-2.371 7.202-3.456 1.029-.456 2.23-.591 3.168-1.172 4.678-2.9 9.039-.498 10.495 4.942 2.609 9.745 5.692 19.373 8.898 28.942 1.208 3.607 3.066 7.068 5.109 10.29.952 1.503 2.947 2.487 4.653 3.34 4.115 2.057 5.83 6.536 3.716 10.72-3.68 7.285-3.085 13.772 2.1 20.407 5.838 7.47 10.854 15.584 16.581 23.56-9.923 10.346-20.2 20.55-30.78 30.895-1.944-3.762-5.772-7.157-2.915-12.12.328-.569-.432-2.29-1.166-2.851-2.63-2.01-6.239-3.2-8.046-5.724-2.807-3.918-7.258-7.061-7.26-12.724-.002-4.326-1.46-8.544 1.606-12.816.903-1.259-.9-5.824-2.73-7.415-4.87-4.233-4.982-10.153-5.557-15.349-.904-8.168-2.6-15.828-6.11-23.25-1.345-2.845-1.946-6.247-2.052-9.423-.14-4.174-1.373-6.756-5.655-8.099-4.067-1.274-7.941-2.217-12.284-.97 1.908-2.479 4.028-4.678 6.431-7.052"/><path fill="none" d="M630.123 534.146a6066 6066 0 0 1-45.523-46.262c-2.782-2.94-5.21-5.34-7.636-7.74-.515-.627-1.031-1.254-1.833-2-1.521-1.513-2.756-2.909-4.088-4.974-2.565-6.143-6.003-10.588-12.212-12.096-12.763-12.95-25.539-25.885-38.285-38.85-20.305-20.652-40.59-41.323-61.272-62.363-.678-.554-.965-.732-1.253-.91-.469-.594-.937-1.188-1.677-1.88-18.995-19.037-36.36-39.54-59.972-52.919-13.462-7.628-27.394-14.192-42.751-17.18-3.993-.776-7.944-1.769-12.268-2.872.232-4.046 3.083-5.256 8.12-3.768 7.472 2.206 15.328 3.595 22.32 6.841 11.611 5.393 22.722 11.885 33.923 18.13 3.566 1.987 7.062 4.32 10.054 7.076 11.924 10.982 23.783 22.043 35.39 33.359 13.353 13.017 26.522 26.228 39.557 39.564 7.265 7.433 13.99 15.39 21.152 22.93 6.125 6.448 12.516 12.645 18.805 18.938 13.402 13.414 26.813 26.817 40.22 40.225 9.599 9.598 19.325 19.071 28.757 28.83 8.613 8.913 16.883 18.157 25.356 27.207 2.81 3.001 5.908 5.743 8.574 8.86.574.672-.144 2.45-.638 3.784-1.099-.56-1.827-1.186-2.82-1.93M948.945 744.009a83 83 0 0 1-.93 3.719c-1.43-.994-3.022-2.137-3.903-3.685-.573-1.006-.112-2.602-.112-3.933V465.458c0-7.238-.254-14.49.15-21.706.126-2.27 2.015-4.443 3.467-6.706.651 2.584 1.179 5.213 1.18 7.843.05 97.393.05 194.787.063 293.07.032 2.61.058 4.33.085 6.05M563.554 803.037c-.466-32.443-.525-64.906-.578-97.37-.01-6.15-.002-12.3-.002-19.19-38.85 0-77.393 0-116.393-.062-.807-4.848 2.713-4.377 5.637-4.388 16.325-.056 32.65-.027 48.974-.027 16.325 0 32.65-.021 48.974.016 3.753.009 7.52.044 11.253.383 4.235.386 6.587 4.067 6.584 9.673-.011 14.906.102 29.812-.047 44.716-.076 7.543-.87 15.081-.87 22.621.002 7.62.81 15.238.842 22.858.024 5.953-.461 11.922-1.063 17.849-.107 1.054-1.892 1.938-3.311 2.92M675.937 461.997q.101 40.132.199 80.263c.008 3.459 0 6.917 0 11.305 29.616 0 58.777 0 88.394-.041 2.91-.032 5.364-.022 8.57-.116 4.408.004 8.065.11 11.723.217.645 3.877-1.648 4.416-4.75 4.4-12.554-.062-25.11-.135-37.663.02-6.613.08-13.223.944-19.83.889-14.34-.12-28.678-.668-43.019-.897-4.624-.074-6.548-2.154-6.595-6.72-.261-25.237-.02-50.504-1.247-75.698-.544-11.17.267-22.063 1.354-33.045.12-1.21 1.2-2.326 2.324-3.334.555.41.711.59.956.694-.097 5.048-.194 10.097-.705 15.648-4.28 2.96-2.046 4.694.289 6.415M300.046 283.53c-2.47 1.008-4.897 1.654-7.686 2.464-2.767.546-5.172.926-8.305 1.317-4.824 1.638-8.92 3.264-13.015 4.89-8.91 4.673-18.277 8.65-26.633 14.163-17.653 11.646-31.174 27.337-41.187 45.957-3.88 7.216-7.336 14.659-11.153 22.338-3.259-.171-3.435-1.91-2.217-4.348 2.933-5.87 5.552-11.915 8.783-17.614 5.573-9.83 10.999-19.733 19.962-27.22 4.916-4.107 9.122-9.118 13.345-13.985 7.818-9.011 18.23-14.208 28.562-19.34 6.243-3.1 13.453-4.264 19.664-7.412 5.687-2.881 11.508-4.078 17.626-4.734 2.562-.275 3.383.762 2.254 3.523M721.088 436.523c-7.4 7.918-14.663 15.538-22.276 23.526-2.229-1.96-3.525-3.098-5.014-4.571 3.69-2.97 7.845-5.29 11.389-8.324 4.377-3.748 8.2-8.137 12.344-12.166 9.3-9.041 18.656-18.025 27.976-27.045 2.359-2.283 4.587-4.711 7.062-6.856.673-.584 2.03-.378 3.277-.257-11.404 11.983-23.012 23.69-34.758 35.693M832.057 739.809c-14.404-14.588-28.549-29.015-42.688-43.449a64 64 0 0 1-3.54-3.923c1.593.435 3.7.78 4.98 1.998 11.143 10.595 22.245 21.24 33.14 32.088 7.854 7.819 15.413 15.936 22.986 24.03.73.78.632 2.337.564 3.684-5.297-4.655-10.24-9.463-15.442-14.428M623.198 698.985c2.204 1.667 4.095 3.48 6.299 5.443a5073 5073 0 0 1 39.86 41.051c-1.254-.37-2.955-.744-4.044-1.769a2196 2196 0 0 1-25.496-24.43c-4.97-4.833-9.916-9.7-14.622-14.783-1.247-1.347-1.565-3.554-1.997-5.512"/><path fill="#515244" d="M730.958 637.207c-1.203 5.136-5.459 4.049-8.591 3.509-3.125-.538-4.83-3.336-3.789-6.735.604-1.973 1.81-3.761 3.326-5.675 1.074.58 1.568 1.202 2.076 2.209-.29 4.028 1.95 4.681 4.879 4.523.438.29.877.579 1.634 1.25.367.561.416.74.465.92"/><path fill="none" d="M316.118 281h-8.414c4.692-4.978 20.188-5.1 26.075 0zM546.531 789.794c4.396 3.911 8.424 7.983 12.598 12.333-1.335 3.896-4.534 3.201-7.038 2.454-.827-.247-.5-3.523-1.214-5.194-.902-2.11-2.405-3.956-3.5-5.994-.569-1.058-.819-2.286-.846-3.599"/><path fill="#5b5944" d="M758.983 831.002c.927-.32 1.832-.788 2.786-.937 3.375-.53 7.01.137 7.63 3.599.393 2.198-2.008 4.897-3.548 7.448-.392.077-.725-.067-.852-.552-2.09-3.509-4.053-6.533-6.016-9.558"/><path fill="none" d="M461.046 870c5.87-6.341 11.931-12.384 18.302-18.59.083 1.233.349 3.09-.453 3.952-4.59 4.932-9.376 9.688-14.253 14.338-.695.662-2.25.422-3.596.3"/><path fill="#5a5844" d="M784.789 553.315c-3.624.203-7.28.097-11.34-.082-.501-3.391-1.173-6.98 4.01-7.943 1.567 1 2.528 1.866 3.489 2.732 1.269 1.661 2.538 3.322 3.84 5.293"/><path fill="none" d="M225.035 867.285c5.146 4.442 10.28 9.29 15.518 14.437-2.628 1.695-4.731 1.026-6.722-1.31-2.113-2.481-4.828-4.472-6.794-7.047-1.16-1.519-1.375-3.758-2.002-6.08M932.087 415.084c5.628 1.23 9.025 5.351 11.952 10.408-.94.678-2.035 1.47-2.932 1.287-2.875-.585-8.689-8.073-9.02-11.695M691.085 595.495c-3.776-3.434-7.524-7.206-11.392-11.245.26-.768.632-1.696 1.019-1.702 3.999-.064 11.05 8.567 10.373 12.947M710.07 615.973c-2.371-2.583-4.744-5.165-7.257-8.022.9-.662 2.548-1.674 2.89-1.342 3.042 2.95 7.476 5.06 6.686 10.606-1.015-.258-1.667-.75-2.318-1.242M901.577 422.045q6.402-4.081 13.957-8.23c-2.816 5.184-7.825 7.324-13.957 8.23"/><path fill="#807347" d="M1015.306 880.868c-1.754-4.827 1.956-8.798 9.424-9.84-2.775 3.243-5.948 6.473-9.424 9.84"/><path fill="#515244" d="M709.76 616.125c.962.34 1.614.832 2.522 1.497.858.854 1.46 1.536 2.349 2.568.288.351.365.83.365.83-1.741 2.746-4.136 2.655-6.34.971-2.774-2.116-.806-3.983 1.105-5.866"/><path fill="none" d="M715.293 621.163c-.297-.142-.374-.622-.41-.862 6.508.007 9.427 2.733 9.801 9.554-.26.364-.718.275-.718.275-.494-.622-.988-1.244-1.757-1.991-2.39-2.361-4.504-4.597-6.916-6.976M647.729 551.168c-1.525-.96-2.637-2.011-3.875-3.324 1.443-1.118 3.821-3.083 4.435-2.634 2.2 1.606 3.046 3.994-.56 5.958"/><path fill="#484c43" d="M758.569 831.003c2.377 3.024 4.34 6.048 6.35 9.394-3.26-2.681-6.568-5.685-9.98-9.015 1.004-.343 2.11-.36 3.63-.379"/><path fill="#5b5944" d="M756.976 663.475c-1.143.878-2.948 2.305-3.564 1.904-1.343-.874-2.082-2.678-3.068-4.102.742-.438 1.483-.875 2.6-1.34 1.554 1.068 2.732 2.163 4.032 3.538"/><path fill="none" d="M482.818 848.572c1.879-2.424 3.902-4.517 6.197-6.753.668.12 1.399.373 1.408.65.092 2.752-4.438 6.608-7.605 6.103"/><path fill="#807347" d="M948.195 748.345c3.927 4.164.55 7.759-1.862 11.598.331-3.687 1.025-7.435 1.862-11.598"/><path fill="none" d="M731.237 637.347c-.328-.319-.377-.498-.503-.944 4.194-.216 7.39 1.052 7.154 6.576-.547.053-1.052-.311-1.841-.808-1.7-1.65-3.115-3.167-4.81-4.824M191.402 376.326c-.264 2.236-.956 4.346-1.996 6.628-3.526-4.893-3.25-5.893 1.996-6.628M667.082 570.788c-1.228-.643-2.322-1.6-3.807-2.958-.7-.873-1.01-1.344-1.32-1.815 4.07-1.193 5.312-.14 5.127 4.773M182.448 764.011c.767 1.404 1.155 2.825 1.476 4.62-1.332-.248-2.597-.87-3.863-1.494.67-1.036 1.339-2.073 2.387-3.126M688.009 448.727c-1.588-1.156-3.132-2.662-4.799-4.465 4.763-1.28 5.701-.447 4.799 4.465M784.785 537.527c.733-1.392 1.652-2.404 2.841-3.564.719 1.261 1.167 2.67 1.615 4.08-1.423-.045-2.846-.09-4.456-.516M781.22 547.81c-1.233-.654-2.194-1.52-3.422-2.586.29-1.203.845-2.207 1.706-3.393.866 1.8 1.427 3.784 1.716 5.98"/><path fill="#484c43" d="M723.98 630.515c-.014-.385.443-.296.672-.252 1.468 1.432 2.707 2.82 4.077 4.492-2.8.441-5.039-.212-4.749-4.24"/><path fill="none" d="M455.887 874.863c.842-1.332 2.108-2.619 3.681-4.045.624 2.538-.15 4.297-3.681 4.045M935.112 778.23c-.528 1.17-1.23 2.022-2.178 2.993-.532-.737-.817-1.592-1.101-2.447 1.035-.288 2.07-.576 3.279-.547M183.372 413.278c.444 1.047.445 1.984.34 3.259-1.266-.17-2.428-.68-3.59-1.189.936-.726 1.872-1.453 3.25-2.07"/><path fill="#223141" d="M437.27 506.818c.936.437 2.012 1.15 2.8 2.072-1.077-.46-1.868-1.128-2.8-2.072"/><path fill="none" d="M492.711 838.793c.1-.661.605-1.253 1.376-1.972.624.31.982.747 1.34 1.184-.77.286-1.54.572-2.716.788"/><path fill="#484c43" d="M661.693 565.917c.573.57.882 1.04 1.3 1.776-.916-.493-1.941-1.252-2.963-2.393.469-.082.935.218 1.663.617"/><path fill="#807347" d="M998.319 893.966c.443-.628 1.205-1.29 2.32-1.96-.431.637-1.216 1.282-2.32 1.96"/><path fill="none" d="M896.915 793.303c-.648.047-1.394-.226-2.31-.793.623-.039 1.417.217 2.31.793"/><path fill="#8c7c48" d="M676.551 439.764c-.443.066-.599-.114-.707-.55.297-.43.635-.683 1.086-.776.015.491-.083.823-.379 1.326"/><path fill="none" d="M851.938 758.932c-.64-.156-1.306-.687-2.098-1.518.606.18 1.339.662 2.098 1.518"/><path fill="#484c43" d="M562.124 804.633c-.069-.569.062-.935.411-1.497.076.435-.068 1.067-.411 1.497M768.624 844.443c.128-.328.377-.355 1-.412.37.449.367.927.346 1.763-.42-.112-.823-.582-1.346-1.351"/><path fill="#6a6445" d="M898.749 793.916c-.032.166-.32.26-.696.176.088-.202.263-.225.696-.176"/><path fill="#c9a84c" d="M306.777 746.007q-.384-.095-.434-.893.384.095.434.893"/><path fill="none" d="M802.477 518.888c-.285-.226-.212-.451.287-.57.119.22 0 .373-.287.57"/><path fill="#182940" d="M271.028 292.57c4.107-1.995 8.203-3.621 12.65-5.089-.942 4.764-6.594 8.72-11.252 8.021-.585-.088-.946-1.673-1.398-2.933"/><path fill="#807347" d="M949.317 743.937c-.399-1.648-.425-3.367-.39-5.513 3.151 1.188 2.804 3.213.39 5.513"/><path fill="none" d="M559.005 461.362c6.035 1.22 9.473 5.665 11.91 11.521-3.932-3.49-7.835-7.36-11.91-11.52"/><path fill="#182940" d="M458.13 359.18c.179-.05.466.127.837.552-.188.056-.459-.135-.838-.553"/><path fill="#223141" d="M452.389 457.463c-.447-.115-.721-.397-.974-.696-.007-.008.22-.212.337-.324.27.284.542.568.637 1.02"/><path fill="#6a6445" d="M887.55 916.463c.036.056-.034-.056 0 0"/><path fill="#223141" d="M576.987 480.5c2.404 2.044 4.83 4.445 7.389 7.181a91 91 0 0 1-7.39-7.18"/><path fill="none" d="M676.007 461.573c-2.405-1.297-4.638-3.03-.433-5.529.393 1.675.448 3.39.433 5.529"/></svg>