<svg version="1.1" id="Layer_1" xmlns="http://www.w3.org/2000/svg" xmlns:xlink="http://www.w3.org/1999/xlink" x="0px" y="0px"
	 width="100%" viewBox="0 0 1254 1254" enable-background="new 0 0 1254 1254" xml:space="preserve">
<path fill="none" opacity="1.000000" stroke="none" 
	d="
M866.000000,1255.000000 
	C577.333313,1255.000000 289.166656,1255.000000 1.000000,1255.000000 
	C1.000000,837.000000 1.000000,419.000000 1.000000,1.000000 
	C419.000000,1.000000 837.000000,1.000000 1255.000000,1.000000 
	C1255.000000,419.000000 1255.000000,837.000000 1255.000000,1255.000000 
	C1125.500000,1255.000000 996.000000,1255.000000 866.000000,1255.000000 
M661.430115,565.818054 
	C660.964600,565.517944 660.499023,565.217834 659.757690,564.314575 
	C655.610596,559.963013 651.463501,555.611389 648.140808,551.076111 
	C651.335083,549.204285 650.488159,546.816345 648.289307,545.209595 
	C647.675049,544.760803 645.297058,546.725891 643.141907,547.215027 
	C639.618530,543.524353 636.095154,539.833679 633.314148,536.009583 
	C633.437012,534.741455 634.155457,532.963806 633.580994,532.292175 
	C630.914734,529.175110 627.817139,526.432983 625.007263,523.431763 
	C616.534424,514.381836 608.264221,505.137817 599.650513,496.225067 
	C590.219116,486.466339 580.492737,476.992737 570.894836,467.394867 
	C557.487244,453.987274 544.075745,440.583527 530.673767,427.170380 
	C524.385498,420.876831 517.994263,414.680145 511.868774,408.231506 
	C504.707764,400.692780 497.982056,392.735168 490.716888,385.301941 
	C477.682251,371.965729 464.512543,358.755310 451.159973,345.737793 
	C439.553375,334.422363 427.694244,323.361206 415.770142,312.379395 
	C412.777557,309.623260 409.281921,307.289764 405.716400,305.302185 
	C394.514679,299.057892 383.404144,292.565704 371.792145,287.173309 
	C364.800934,283.926666 356.945312,282.538300 349.473175,280.331604 
	C344.436340,278.844025 341.585388,280.053772 340.117828,284.026428 
	C333.347412,283.681305 326.577942,283.087708 319.806305,283.061798 
	C313.205872,283.036499 306.603210,283.591766 300.090088,283.166534 
	C301.174683,280.767517 300.354034,279.731110 297.792114,280.005829 
	C291.673706,280.662018 285.852600,281.858795 280.166473,284.740265 
	C273.955139,287.887878 266.744781,289.052094 260.502045,292.152405 
	C250.169922,297.283661 239.758331,302.480652 231.939606,311.492401 
	C227.717270,316.359009 223.510757,321.370239 218.595383,325.476196 
	C209.631760,332.963776 204.205902,342.867676 198.633270,352.696960 
	C195.402145,358.396149 192.782913,364.440979 189.850235,370.311249 
	C188.632111,372.749542 188.808334,374.487793 192.101700,375.478149 
	C192.011475,375.802612 191.921249,376.127045 190.973297,376.199707 
	C186.156799,377.061249 185.880447,378.060669 189.013458,383.901642 
	C185.993546,393.503479 183.922714,403.272644 182.929367,413.167938 
	C181.993668,413.894745 181.057968,414.621521 180.122269,415.348328 
	C181.283981,415.857361 182.445679,416.366394 183.667404,417.829834 
	C183.493286,420.820740 183.167786,423.811584 183.167252,426.802521 
	C183.154984,496.413269 183.224609,566.024048 183.177124,635.634766 
	C183.147934,678.421387 182.949646,721.207825 182.069046,764.028076 
	C181.399811,765.064331 180.730576,766.100586 180.061371,767.136902 
	C181.326843,767.760071 182.592316,768.383179 184.088028,769.896057 
	C184.102463,772.374146 183.695358,774.943420 184.207962,777.313782 
	C185.962280,785.426025 187.428741,793.680176 190.135681,801.488281 
	C194.271896,813.419128 198.382233,825.540771 204.304230,836.618774 
	C210.034698,847.338562 218.041168,856.841553 225.021912,867.691528 
	C225.662094,869.606873 225.877899,871.846069 227.037308,873.365112 
	C229.003036,875.940430 231.717651,877.930603 233.830658,880.411072 
	C235.821671,882.748413 237.924698,883.417114 241.068588,882.587463 
	C243.827515,885.151062 246.259964,888.241577 249.401352,890.187866 
	C263.828918,899.127014 278.279999,907.855164 294.695068,913.171814 
	C316.159821,920.124207 337.906677,922.390259 360.156982,919.836426 
	C377.687195,917.824341 394.367401,912.381409 410.136322,904.619751 
	C419.219788,900.148804 427.839874,894.645630 436.331207,889.091553 
	C442.977020,884.744446 449.104218,879.604553 456.312073,874.909912 
	C459.418518,875.115173 460.192261,873.356201 460.043335,870.216370 
	C460.241516,869.929688 460.512573,869.758118 461.234680,870.299561 
	C462.391724,870.122131 463.946991,870.362427 464.641693,869.700012 
	C469.519287,865.050049 474.305634,860.294312 478.894745,855.361694 
	C479.696991,854.499390 479.430878,852.643250 479.967468,850.718872 
	C480.869324,849.892639 481.771179,849.066406 482.963898,848.904480 
	C485.984528,849.076660 490.514587,845.221375 490.422882,842.468079 
	C490.413666,842.191589 489.682922,841.939148 489.602173,841.149597 
	C490.503418,840.340698 491.404633,839.531860 493.116608,838.862915 
	C493.886627,838.577026 494.656616,838.291077 495.426636,838.005188 
	C495.068726,837.567810 494.710815,837.130371 494.727783,836.105591 
	C498.119476,832.605103 501.441040,829.033264 504.915588,825.617065 
	C516.985535,813.749756 529.151123,801.979370 541.169983,790.060791 
	C543.183899,788.063660 544.812195,787.480591 546.164246,789.955566 
	C546.558044,791.106689 546.808105,792.335144 547.376404,793.392517 
	C548.472290,795.431274 549.974731,797.276489 550.876831,799.386597 
	C551.591370,801.057800 551.264160,804.333618 552.091187,804.580627 
	C554.595459,805.328369 557.794312,806.022644 559.788635,802.879089 
	C560.500732,803.396118 561.212891,803.913147 562.322876,804.834900 
	C562.466980,804.202881 562.611023,803.570923 562.973877,802.917542 
	C562.973877,802.917542 563.144348,803.056458 563.962769,803.017334 
	C564.972839,802.054443 566.757568,801.170288 566.864685,800.115723 
	C567.466553,794.188721 567.952332,788.219666 567.927856,782.267151 
	C567.896545,774.646729 567.088013,767.028503 567.086670,759.409241 
	C567.085327,751.869141 567.880188,744.330994 567.955811,736.788330 
	C568.105164,721.884338 567.991943,706.977783 568.002502,692.072327 
	C568.006470,686.465942 565.654175,682.785034 561.419067,682.399353 
	C557.686829,682.059570 553.918640,682.024719 550.165955,682.016113 
	C533.841431,681.978638 517.516724,681.999939 501.192108,682.000000 
	C484.867462,682.000000 468.542725,681.970764 452.218262,682.027405 
	C449.294189,682.037598 445.774231,681.566833 446.130005,687.011047 
	C450.233185,691.317261 454.272034,695.687500 458.467773,699.901611 
	C460.443451,701.885986 460.426178,703.449707 458.386719,705.324280 
	C455.322693,708.140625 452.368530,711.078003 449.403595,714.000427 
	C426.985535,736.097046 404.645172,758.273071 382.143005,780.283691 
	C363.132965,798.878418 337.060272,798.623657 320.776489,779.671936 
	C312.554108,770.102356 306.662750,759.370911 306.885681,745.772400 
	C306.742889,745.474976 306.600098,745.177551 306.356293,743.965027 
	C306.338318,715.815430 306.302582,687.665833 306.305878,659.516235 
	C306.314240,588.225891 306.377686,516.935486 306.312073,445.645233 
	C306.303741,436.587402 307.985474,428.250427 314.077179,421.248566 
	C317.938995,416.809753 322.336090,413.025726 328.611816,413.076843 
	C333.400330,413.115784 338.184021,413.748657 343.407471,414.631500 
	C347.221436,417.246643 351.536499,419.357819 354.761993,422.564819 
	C368.195221,435.921265 381.278931,449.628632 394.531738,463.167267 
	C408.707184,477.648438 422.928589,492.084595 437.410522,507.095551 
	C438.201660,507.762421 438.992798,508.429291 439.979401,509.606659 
	C440.635925,510.196350 441.292480,510.786011 442.281403,512.019897 
	C443.533936,513.351196 444.769409,514.699097 446.041565,516.011414 
	C472.765900,543.578674 499.451569,571.183594 526.238037,598.690369 
	C542.347412,615.232849 558.615173,631.621033 575.072693,648.706177 
	C591.218628,665.417297 607.364624,682.128357 622.884949,699.130249 
	C623.629639,700.942688 623.947754,703.150024 625.194885,704.497314 
	C629.900574,709.580750 634.847534,714.447083 639.816650,719.279053 
	C648.255432,727.484863 656.743469,735.641296 665.312866,743.710083 
	C666.401672,744.735352 668.103455,745.109558 669.927368,746.280334 
	C674.012024,750.172852 678.096741,754.065430 682.271179,758.631165 
	C684.090332,760.744080 685.787354,762.978455 687.748474,764.950195 
	C700.615356,777.886963 713.497192,790.809448 726.466492,803.643311 
	C731.158508,808.286133 736.104309,812.672546 741.213867,817.770325 
	C745.755127,822.198792 750.296326,826.627319 755.042053,831.708557 
	C758.350647,834.712097 761.659241,837.715637 765.126221,841.044983 
	C765.126221,841.044983 765.458679,841.189087 765.778381,841.714233 
	C766.686646,842.523682 767.594971,843.333191 768.744263,844.742493 
	C769.146851,845.212463 769.549500,845.682434 770.222107,846.753601 
	C775.752991,852.277161 781.134338,857.961365 786.853149,863.282959 
	C793.745483,869.696350 800.924316,875.801758 808.264221,882.652588 
	C811.694946,885.165039 815.109802,887.699524 818.559143,890.186157 
	C832.249084,900.055054 847.364258,907.202271 863.204712,912.724609 
	C869.888855,915.054810 877.029053,916.076721 884.787964,917.819458 
	C889.782959,918.517578 894.764832,919.675537 899.775696,919.819092 
	C910.617981,920.129578 921.727722,921.381531 932.263489,919.560669 
	C946.013611,917.184265 959.609619,912.992676 972.705322,908.073730 
	C981.638611,904.718201 989.602661,898.782227 998.000000,894.000000 
	C998.000000,894.000000 998.000000,894.000061 998.637878,893.932495 
	C999.422791,893.287720 1000.207703,892.642944 1001.637451,891.763916 
	C1006.092529,888.177673 1010.547546,884.591431 1015.609802,880.730774 
	C1018.782349,877.500916 1021.954895,874.271057 1025.721802,870.750671 
	C1031.525391,863.353210 1037.821167,856.286011 1043.045166,848.499756 
	C1062.839844,818.995850 1071.958984,786.125916 1072.005493,750.790588 
	C1072.146362,643.822876 1072.146729,536.854736 1071.936890,429.887268 
	C1071.916504,419.505798 1070.830078,408.983643 1068.919434,398.773621 
	C1061.071655,356.837433 1039.361206,323.887024 1003.193115,300.976349 
	C978.204224,285.147156 950.425598,280.668152 921.468506,283.415802 
	C901.138000,285.344910 881.903870,291.913177 864.522095,302.526978 
	C853.385742,309.327118 843.456482,318.104095 832.374146,326.265228 
	C825.170715,333.425934 817.990173,340.609833 810.758972,347.742371 
	C797.151001,361.164612 783.513855,374.557220 769.321960,388.311737 
	C767.201965,390.510986 765.081970,392.710236 762.359741,395.193878 
	C760.256409,397.164917 758.153076,399.135956 755.642761,400.552429 
	C754.599487,400.708923 753.242310,400.503204 752.568970,401.086670 
	C750.093506,403.231720 747.866028,405.660400 745.507202,407.943085 
	C736.186584,416.962891 726.831055,425.946777 717.531128,434.987946 
	C713.387268,439.016541 709.564392,443.405884 705.186951,447.154022 
	C701.643372,450.188232 697.487732,452.507721 693.058472,454.819885 
	C691.360535,452.905670 689.662659,450.991425 688.053284,448.376831 
	C688.911072,443.814789 687.973389,442.981567 682.483765,443.675812 
	C680.670105,441.982971 678.856445,440.290131 676.817078,438.278625 
	C676.479065,438.530884 676.141052,438.783173 674.908508,439.087585 
	C674.273499,440.247589 673.192810,441.363495 673.072998,442.574493 
	C671.986206,453.556244 671.175415,464.448547 671.719482,475.619476 
	C672.946533,500.813141 672.704834,526.079834 672.965881,551.317749 
	C673.013062,555.883057 674.937073,557.963135 679.561096,558.037048 
	C693.902100,558.266357 708.239197,558.814636 722.580322,558.933777 
	C729.187073,558.988708 735.797241,558.125732 742.410339,558.044617 
	C754.963135,557.890442 767.519287,557.963013 780.073669,558.025452 
	C783.175415,558.040894 785.467896,557.501892 784.754700,553.004517 
	C783.485596,551.343811 782.216553,549.683105 781.492371,547.598755 
	C780.931458,545.615356 780.370483,543.631897 780.139709,541.081421 
	C781.626160,539.770142 783.112610,538.458801 784.971375,537.906555 
	C786.394714,537.952148 787.818115,537.997681 789.241455,538.043213 
	C788.793030,536.633728 788.344604,535.224243 788.180725,533.218384 
	C792.903687,528.466064 797.626709,523.713806 802.604614,518.814148 
	C802.763733,518.691223 802.882507,518.537109 803.537354,517.956482 
	C807.371155,513.994324 811.204895,510.032166 815.647034,505.790344 
	C825.923645,495.585785 836.200195,485.381226 847.038208,474.872406 
	C863.074951,459.004395 879.111633,443.136383 895.737549,426.945526 
	C897.556030,425.318909 899.374451,423.692322 901.960815,422.024841 
	C907.709473,421.139221 912.718323,418.999268 916.607361,413.330688 
	C921.778992,413.779175 926.950562,414.227661 932.051331,415.491272 
	C932.418091,418.706329 938.231628,426.194397 941.106628,426.779083 
	C942.003967,426.961548 943.099487,426.169617 944.663086,426.306915 
	C945.770874,429.871277 946.878662,433.435638 947.247742,437.091339 
	C946.165222,439.308807 944.276184,441.481262 944.149292,443.752136 
	C943.746277,450.967682 944.000000,458.219940 944.000000,465.458008 
	C943.999939,557.008545 943.999939,648.559082 944.000183,740.109619 
	C944.000183,741.441284 943.539062,743.036865 944.111877,744.043274 
	C944.992798,745.590942 946.584595,746.734009 948.108887,748.001587 
	C948.108887,748.001587 948.336914,747.930420 948.052124,748.760010 
	C947.358276,752.508179 946.664490,756.256409 945.602173,760.630737 
	C944.345093,763.726074 943.088013,766.821472 941.355652,770.377869 
	C939.332031,773.100891 937.308472,775.823853 934.938293,777.911865 
	C933.903137,778.199829 932.868042,778.487854 931.832886,778.775818 
	C932.117310,779.630798 932.401672,780.485718 932.264221,781.904785 
	C923.122070,791.284241 911.851013,794.803589 898.492310,793.844421 
	C898.316406,793.867310 898.140503,793.890137 897.504333,793.717163 
	C897.340515,793.685913 897.176758,793.654724 896.816895,792.983032 
	C896.022278,792.727173 895.227722,792.471313 893.691650,792.253479 
	C889.194153,790.351929 884.696716,788.450317 879.787842,786.059998 
	C870.513184,777.142090 861.238464,768.224121 851.911987,758.557373 
	C851.178894,758.076111 850.445862,757.594788 849.179138,756.779175 
	C848.500977,755.982422 847.822876,755.185730 847.853943,754.085693 
	C847.567383,752.889587 847.665466,751.333557 846.934937,750.552795 
	C839.361694,742.459229 831.803101,734.341797 823.949768,726.522949 
	C813.053589,715.674561 801.952454,705.030090 790.809509,694.434570 
	C789.529663,693.217712 787.421509,692.871948 785.131958,691.809998 
	C778.152161,684.850525 771.172302,677.891052 763.882324,670.329346 
	C761.621155,668.137756 759.360046,665.946167 756.854004,663.195679 
	C755.676147,662.100220 754.498291,661.004822 753.003357,659.298340 
	C747.951233,653.997681 742.899109,648.697083 737.929626,642.561401 
	C738.123596,637.455383 734.927673,636.186523 730.174438,635.906067 
	C729.735901,635.616760 729.297302,635.327393 728.598511,634.471741 
	C727.359192,633.083313 726.119873,631.694824 724.945862,629.490784 
	C724.310425,623.034180 721.391296,620.308228 714.342285,619.839050 
	C713.741394,619.157654 713.140442,618.476318 712.752319,616.980896 
	C713.178955,611.668091 708.744507,609.559265 705.703674,606.609314 
	C705.360718,606.276672 703.713440,607.288574 702.104431,607.278870 
	C698.422058,603.463623 694.739685,599.648376 691.113159,595.157715 
	C691.761108,591.115173 684.710815,582.483887 680.711548,582.548218 
	C680.324646,582.554443 679.952576,583.482239 678.955261,583.621826 
	C674.978210,579.727112 671.001160,575.832397 666.979309,571.520264 
	C666.979309,571.520264 666.947388,571.101562 667.216675,570.474060 
	C667.267273,565.875305 666.024963,564.822266 661.430115,565.818054 
M316.596497,281.000000 
	C321.911469,281.000000 327.226410,281.000000 333.778564,281.000000 
	C327.892059,275.899811 312.395782,276.021790 307.704010,281.000000 
	C310.895782,281.000000 313.267792,281.000000 316.596497,281.000000 
z"/>
<path fill="#0F2340" opacity="1.000000" stroke="none" 
	d="
M561.924988,804.430176 
	C561.212891,803.913147 560.500732,803.396118 559.385681,802.364319 
	C554.954712,797.777222 550.926758,793.704956 546.898743,789.632629 
	C544.812195,787.480591 543.183899,788.063660 541.169983,790.060791 
	C529.151123,801.979370 516.985535,813.749756 504.915588,825.617065 
	C501.441040,829.033264 498.119476,832.605103 494.274292,836.527222 
	C493.315826,837.540222 492.810822,838.131592 492.305847,838.723022 
	C491.404633,839.531860 490.503418,840.340698 489.173035,841.556274 
	C486.720306,844.055420 484.696686,846.147827 482.673035,848.240173 
	C481.771179,849.066406 480.869324,849.892639 479.502380,851.145752 
	C472.977020,857.615601 466.916748,863.658630 460.856476,869.701721 
	C460.512573,869.758118 460.241516,869.929688 459.652649,870.587036 
	C457.995239,872.244202 456.728577,873.530579 455.461884,874.816956 
	C449.104218,879.604553 442.977020,884.744446 436.331207,889.091553 
	C427.839874,894.645630 419.219788,900.148804 410.136322,904.619751 
	C394.367401,912.381409 377.687195,917.824341 360.156982,919.836426 
	C337.906677,922.390259 316.159821,920.124207 294.695068,913.171814 
	C278.279999,907.855164 263.828918,899.127014 249.401352,890.187866 
	C246.259964,888.241577 243.827515,885.151062 240.757935,882.004761 
	C235.314163,876.574402 230.181061,871.726746 225.047943,866.879028 
	C218.041168,856.841553 210.034698,847.338562 204.304230,836.618774 
	C198.382233,825.540771 194.271896,813.419128 190.135681,801.488281 
	C187.428741,793.680176 185.962280,785.426025 184.207962,777.313782 
	C183.695358,774.943420 184.102463,772.374146 184.039444,769.076294 
	C183.602997,766.835876 183.215149,765.415100 182.827301,763.994385 
	C182.949646,721.207825 183.147934,678.421387 183.177124,635.634766 
	C183.224609,566.024048 183.154984,496.413269 183.167252,426.802521 
	C183.167786,423.811584 183.493286,420.820740 183.742676,417.014160 
	C183.816727,415.261597 183.815506,414.324738 183.814301,413.387848 
	C183.922714,403.272644 185.993546,393.503479 189.383209,383.342224 
	C190.445633,380.672363 191.138321,378.561920 191.831024,376.451508 
	C191.921249,376.127045 192.011475,375.802612 192.168549,374.898590 
	C195.884262,366.979736 199.339844,359.536530 203.219696,352.321472 
	C213.232727,333.701050 226.754333,318.010406 244.407455,306.363800 
	C252.762817,300.851410 262.130707,296.873779 271.027740,292.569275 
	C271.480347,293.829224 271.841034,295.414459 272.426270,295.502197 
	C277.084167,296.200531 282.736237,292.244659 284.406616,287.470093 
	C287.188477,286.919739 289.593231,286.539551 292.005127,286.521179 
	C294.362885,292.427704 297.711304,293.079773 303.349243,289.090668 
	C309.207794,284.945526 316.679749,286.495819 320.808899,291.970978 
	C323.016632,294.898438 323.877319,300.824524 330.060913,298.189606 
	C330.398071,299.200836 331.339966,300.722382 330.981812,301.146851 
	C325.497772,307.645660 321.699890,314.735901 321.954346,323.548187 
	C322.024139,325.964752 320.948608,327.077637 318.171539,326.762238 
	C317.240326,326.656403 315.052795,328.787476 315.196381,329.576202 
	C315.805023,332.918762 316.379395,336.644470 318.284729,339.275299 
	C320.492096,342.323303 320.599670,343.572174 317.180115,345.261078 
	C316.345642,345.673218 315.872009,349.039825 316.169739,349.190033 
	C321.392731,351.824707 318.181274,355.989624 318.729279,359.307312 
	C316.593109,359.645294 314.964661,359.902954 312.309357,360.323090 
	C323.851593,367.461456 323.858337,366.954376 323.721222,371.716492 
	C326.643311,373.589569 329.024475,374.680420 330.835815,376.378906 
	C333.563751,378.936981 335.891754,381.921295 338.393097,384.721436 
	C339.232666,385.661316 340.305939,386.473145 340.880371,387.552155 
	C342.045319,389.740387 342.942810,392.071045 343.906067,394.242767 
	C343.362976,395.994354 342.258240,397.952545 342.245483,399.917847 
	C342.214783,404.649231 342.695465,409.383942 342.969879,414.117310 
	C338.184021,413.748657 333.400330,413.115784 328.611816,413.076843 
	C322.336090,413.025726 317.938995,416.809753 314.077179,421.248566 
	C307.985474,428.250427 306.303741,436.587402 306.312073,445.645233 
	C306.377686,516.935486 306.314240,588.225891 306.305878,659.516235 
	C306.302582,687.665833 306.338318,715.815430 306.292389,744.656250 
	C306.375427,745.645813 306.522369,745.944092 306.669312,746.242371 
	C306.662750,759.370911 312.554108,770.102356 320.776489,779.671936 
	C337.060272,798.623657 363.132965,798.878418 382.143005,780.283691 
	C404.645172,758.273071 426.985535,736.097046 449.403595,714.000427 
	C452.368530,711.078003 455.322693,708.140625 458.386719,705.324280 
	C460.426178,703.449707 460.443451,701.885986 458.467773,699.901611 
	C454.272034,695.687500 450.233185,691.317261 446.584351,686.744263 
	C485.581482,686.477478 524.124207,686.477478 562.974060,686.477478 
	C562.974060,693.367310 562.965332,699.517578 562.975525,705.667786 
	C563.029175,738.130676 563.087585,770.593567 563.144348,803.056458 
	C563.144348,803.056458 562.973877,802.917542 562.644897,803.125061 
	C562.185547,803.698425 562.055298,804.064331 561.924988,804.430176 
z"/>
<path fill="#8C7C48" opacity="1.000000" stroke="none" 
	d="
M901.192871,422.065735 
	C899.374451,423.692322 897.556030,425.318909 895.287231,426.761902 
	C893.149536,422.470093 889.872742,421.323059 885.892883,422.227753 
	C878.261414,423.962463 877.312866,423.320526 875.093872,416.024078 
	C872.957031,408.997711 870.370422,402.105896 867.878052,395.192200 
	C867.503906,394.154175 866.366760,393.405029 865.924072,392.375427 
	C864.208008,388.384766 861.528442,384.411591 861.241272,380.290192 
	C860.723999,372.865204 856.882751,367.661560 851.932312,363.135773 
	C849.258667,360.691589 848.115234,358.552612 849.842102,355.467834 
	C851.858521,351.865784 850.412170,349.329956 848.123596,346.514893 
	C845.093689,342.787994 841.091003,339.960236 839.586060,334.770020 
	C838.633057,331.483429 835.268921,328.895935 832.986145,325.994904 
	C843.456482,318.104095 853.385742,309.327118 864.522095,302.526978 
	C881.903870,291.913177 901.138000,285.344910 921.468506,283.415802 
	C950.425598,280.668152 978.204224,285.147156 1003.193115,300.976349 
	C1039.361206,323.887024 1061.071655,356.837433 1068.919434,398.773621 
	C1070.830078,408.983643 1071.916504,419.505798 1071.936890,429.887268 
	C1072.146729,536.854736 1072.146362,643.822876 1072.005493,750.790588 
	C1071.958984,786.125916 1062.839844,818.995850 1043.045166,848.499756 
	C1037.821167,856.286011 1031.525391,863.353210 1025.027100,870.883423 
	C1017.261536,872.069702 1013.552368,876.040955 1015.002563,881.005127 
	C1010.547546,884.591431 1006.092529,888.177673 1000.962036,891.889526 
	C999.524353,892.676819 998.762207,893.338440 998.000000,894.000061 
	C998.000000,894.000061 998.000000,894.000000 997.613892,894.001221 
	C995.013367,893.015503 992.602478,892.320374 990.621643,890.986633 
	C984.778992,887.052612 979.591431,882.244751 972.748169,879.706543 
	C969.066162,878.340942 965.966492,875.405457 961.766541,872.623535 
	C969.712952,868.916443 963.706482,867.555237 961.096619,864.793457 
	C968.230286,861.435974 970.332397,855.768250 971.081238,848.503540 
	C971.729126,842.218140 970.489380,835.658630 966.992798,832.481323 
	C961.810608,827.772522 961.843140,822.133057 961.382324,817.019897 
	C960.874390,811.384094 960.033386,808.117310 954.123291,806.342590 
	C949.245239,804.877625 949.294250,803.088867 952.237549,799.161194 
	C953.273560,797.778748 953.624329,795.899048 954.395935,794.298462 
	C955.629517,791.739380 957.259338,789.325684 958.148010,786.659363 
	C958.946228,784.264343 958.972290,781.611877 959.338928,779.072998 
	C957.646057,778.968750 955.951416,778.885986 954.262207,778.739502 
	C953.978699,778.714905 953.719177,778.414917 953.452148,778.236572 
	C952.411255,770.968079 952.410706,770.991882 944.135681,770.807678 
	C943.361206,770.790466 942.598938,770.226807 941.830994,769.916809 
	C943.088013,766.821472 944.345093,763.726074 946.148865,760.255798 
	C948.744507,756.103638 952.122437,752.508972 948.336914,747.930420 
	C948.336914,747.930420 948.108887,748.001587 948.132324,747.704102 
	C948.418762,746.274048 948.681702,745.141418 949.316895,743.936768 
	C951.731445,741.637268 952.078125,739.612427 948.921265,737.533447 
	C948.846985,639.675537 948.846252,542.282349 948.796936,444.889221 
	C948.795593,442.259338 948.268433,439.629730 947.986450,437.000000 
	C946.878662,433.435638 945.770874,429.871277 944.318176,425.733765 
	C941.111511,420.435242 937.715393,416.313965 932.122192,414.676178 
	C926.950562,414.227661 921.778992,413.779175 915.878845,413.584961 
	C910.497864,416.581390 905.845337,419.323547 901.192871,422.065735 
z"/>
<path fill="#223141" opacity="1.000000" stroke="none" 
	d="
M574.811707,648.078613 
	C558.615173,631.621033 542.347412,615.232849 526.238037,598.690369 
	C499.451569,571.183594 472.765900,543.578674 446.041565,516.011414 
	C444.769409,514.699097 443.533936,513.351196 442.593018,511.614624 
	C447.029419,511.000061 450.621826,511.907928 453.729431,515.013550 
	C454.828766,516.112183 457.124939,516.155273 458.912567,516.382263 
	C460.621552,516.599304 462.379669,516.429077 464.116211,516.429077 
	C471.405670,514.216614 473.860596,505.796326 468.741516,498.531738 
	C465.204376,493.512177 464.610992,489.266693 467.391235,485.416229 
	C464.823944,480.116180 462.439545,475.686340 460.528473,471.060944 
	C459.408691,468.350647 458.415771,465.315765 458.475006,462.449829 
	C458.583008,457.225616 458.717957,452.287262 454.141632,448.607086 
	C452.642426,447.401489 451.325012,445.969757 449.924438,444.641449 
	C450.377197,444.535400 450.829956,444.429352 451.282715,444.323334 
	C451.282715,442.325439 451.097778,440.303375 451.354950,438.339142 
	C451.499603,437.234222 452.139648,435.943665 452.979156,435.243713 
	C454.024231,434.372345 455.505371,434.023956 456.655853,433.512970 
	C455.412537,430.886688 453.516815,428.699615 453.561218,426.552704 
	C453.628845,423.282501 455.067810,420.046906 455.855499,416.779968 
	C456.004517,416.161896 456.053009,415.349823 455.774994,414.824677 
	C452.763245,409.135712 455.116241,405.767914 460.285583,403.053802 
	C464.267151,400.963348 463.987396,397.694244 460.278809,395.109314 
	C459.185913,394.347534 458.237823,392.702423 458.109131,391.376221 
	C457.855499,388.762482 458.348969,386.084808 458.269714,383.441467 
	C458.237030,382.351746 457.641083,380.412415 457.102417,380.340088 
	C452.369812,379.704315 452.546753,376.992218 453.631805,373.459686 
	C453.900940,372.583374 453.334320,371.227478 452.758881,370.349609 
	C447.716248,362.656616 447.689117,362.672974 455.197968,357.449127 
	C455.468384,357.260986 455.779480,357.131317 456.343567,357.071442 
	C457.083954,357.762848 457.552307,358.357178 458.129059,359.179108 
	C458.507965,359.597412 458.778503,359.788147 459.356049,360.108093 
	C479.956177,380.900635 500.241028,401.572144 520.545532,422.224335 
	C533.292114,435.189178 546.068237,448.124939 559.004639,461.362366 
	C563.080383,465.522491 566.982666,469.393921 571.012878,473.552460 
	C572.375366,475.235260 573.609863,476.630981 574.459473,478.022491 
	C570.707886,479.762115 569.371765,483.586639 572.128967,485.236176 
	C576.298645,487.730804 577.105957,491.246582 577.728577,495.334595 
	C578.246948,498.738647 578.671021,502.227905 579.787354,505.454376 
	C581.766113,511.173431 579.394409,516.437012 578.727539,521.880737 
	C578.088257,527.099854 573.884888,532.652344 580.333313,537.203308 
	C580.807800,537.538208 580.656067,539.051331 580.488037,539.959778 
	C579.176758,547.051941 577.319031,554.079956 576.555542,561.226624 
	C575.746277,568.801270 574.730530,576.167175 580.163696,583.499146 
	C583.295898,587.726074 582.629028,594.769287 583.658142,600.547363 
	C583.682617,600.684998 583.559998,600.865173 583.472290,601.004272 
	C579.397583,607.468140 581.792419,614.172180 582.838684,620.785889 
	C583.134399,622.655090 583.576965,624.967468 584.829468,626.137512 
	C590.106873,631.067627 587.390442,636.163818 585.737549,641.358398 
	C584.011169,646.784119 580.444702,649.075439 574.811707,648.078613 
z"/>
<path fill="#182940" opacity="1.000000" stroke="none" 
	d="
M456.071594,356.974365 
	C455.779480,357.131317 455.468384,357.260986 455.197968,357.449127 
	C447.689117,362.672974 447.716248,362.656616 452.758881,370.349609 
	C453.334320,371.227478 453.900940,372.583374 453.631805,373.459686 
	C452.546753,376.992218 452.369812,379.704315 457.102417,380.340088 
	C457.641083,380.412415 458.237030,382.351746 458.269714,383.441467 
	C458.348969,386.084808 457.855499,388.762482 458.109131,391.376221 
	C458.237823,392.702423 459.185913,394.347534 460.278809,395.109314 
	C463.987396,397.694244 464.267151,400.963348 460.285583,403.053802 
	C455.116241,405.767914 452.763245,409.135712 455.774994,414.824677 
	C456.053009,415.349823 456.004517,416.161896 455.855499,416.779968 
	C455.067810,420.046906 453.628845,423.282501 453.561218,426.552704 
	C453.516815,428.699615 455.412537,430.886688 456.655853,433.512970 
	C455.505371,434.023956 454.024231,434.372345 452.979156,435.243713 
	C452.139648,435.943665 451.499603,437.234222 451.354950,438.339142 
	C451.097778,440.303375 451.282715,442.325439 451.282715,444.323334 
	C450.829956,444.429352 450.377197,444.535400 449.924438,444.641449 
	C451.325012,445.969757 452.642426,447.401489 454.141632,448.607086 
	C458.717957,452.287262 458.583008,457.225616 458.475006,462.449829 
	C458.415771,465.315765 459.408691,468.350647 460.528473,471.060944 
	C462.439545,475.686340 464.823944,480.116180 467.391235,485.416229 
	C464.610992,489.266693 465.204376,493.512177 468.741516,498.531738 
	C473.860596,505.796326 471.405670,514.216614 464.116211,516.429077 
	C462.379669,516.429077 460.621552,516.599304 458.912567,516.382263 
	C457.124939,516.155273 454.828766,516.112183 453.729431,515.013550 
	C450.621826,511.907928 447.029419,511.000061 442.426819,511.292480 
	C441.292480,510.786011 440.635925,510.196350 440.168671,509.144836 
	C439.281952,507.968842 438.205933,507.254608 437.129944,506.540405 
	C422.928589,492.084595 408.707184,477.648438 394.531738,463.167267 
	C381.278931,449.628632 368.195221,435.921265 354.761993,422.564819 
	C351.536499,419.357819 347.221436,417.246643 343.188660,414.374390 
	C342.695465,409.383942 342.214783,404.649231 342.245483,399.917847 
	C342.258240,397.952545 343.362976,395.994354 343.906067,394.242767 
	C342.942810,392.071045 342.045319,389.740387 340.880371,387.552155 
	C340.305939,386.473145 339.232666,385.661316 338.393097,384.721436 
	C335.891754,381.921295 333.563751,378.936981 330.835815,376.378906 
	C329.024475,374.680420 326.643311,373.589569 323.721222,371.716492 
	C323.858337,366.954376 323.851593,367.461456 312.309357,360.323090 
	C314.964661,359.902954 316.593109,359.645294 318.729279,359.307312 
	C318.181274,355.989624 321.392731,351.824707 316.169739,349.190033 
	C315.872009,349.039825 316.345642,345.673218 317.180115,345.261078 
	C320.599670,343.572174 320.492096,342.323303 318.284729,339.275299 
	C316.379395,336.644470 315.805023,332.918762 315.196381,329.576202 
	C315.052795,328.787476 317.240326,326.656403 318.171539,326.762238 
	C320.948608,327.077637 322.024139,325.964752 321.954346,323.548187 
	C321.699890,314.735901 325.497772,307.645660 330.981812,301.146851 
	C331.339966,300.722382 330.398071,299.200836 330.060913,298.189606 
	C323.877319,300.824524 323.016632,294.898438 320.808899,291.970978 
	C316.679749,286.495819 309.207794,284.945526 303.349243,289.090668 
	C297.711304,293.079773 294.362885,292.427704 292.367554,286.356110 
	C295.149017,285.183533 297.575256,284.537842 300.001526,283.892151 
	C306.603210,283.591766 313.205872,283.036499 319.806305,283.061798 
	C326.577942,283.087708 333.347412,283.681305 340.911987,284.168152 
	C345.676544,285.203339 349.627655,286.195923 353.620728,286.972717 
	C368.977509,289.960022 382.909790,296.524475 396.371552,304.151978 
	C419.984680,317.531403 437.349091,338.033630 456.071594,356.974365 
M452.564575,457.294647 
	C452.293640,457.010742 452.022705,456.726837 451.751801,456.442902 
	C451.634308,456.555237 451.408478,456.759033 451.414948,456.766724 
	C451.667816,457.066132 451.941833,457.347717 452.564575,457.294647 
z"/>
<path fill="#807347" opacity="1.000000" stroke="none" 
	d="
M941.593323,770.147339 
	C942.598938,770.226807 943.361206,770.790466 944.135681,770.807678 
	C952.410706,770.991882 952.411255,770.968079 953.452148,778.236572 
	C953.719177,778.414917 953.978699,778.714905 954.262207,778.739502 
	C955.951416,778.885986 957.646057,778.968750 959.338928,779.072998 
	C958.972290,781.611877 958.946228,784.264343 958.148010,786.659363 
	C957.259338,789.325684 955.629517,791.739380 954.395935,794.298462 
	C953.624329,795.899048 953.273560,797.778748 952.237549,799.161194 
	C949.294250,803.088867 949.245239,804.877625 954.123291,806.342590 
	C960.033386,808.117310 960.874390,811.384094 961.382324,817.019897 
	C961.843140,822.133057 961.810608,827.772522 966.992798,832.481323 
	C970.489380,835.658630 971.729126,842.218140 971.081238,848.503540 
	C970.332397,855.768250 968.230286,861.435974 961.096619,864.793457 
	C963.706482,867.555237 969.712952,868.916443 961.766541,872.623535 
	C965.966492,875.405457 969.066162,878.340942 972.748169,879.706543 
	C979.591431,882.244751 984.778992,887.052612 990.621643,890.986633 
	C992.602478,892.320374 995.013367,893.015503 997.613892,894.001221 
	C989.602661,898.782227 981.638611,904.718201 972.705322,908.073730 
	C959.609619,912.992676 946.013611,917.184265 932.263489,919.560669 
	C921.727722,921.381531 910.617981,920.129578 899.775696,919.819092 
	C894.764832,919.675537 889.782959,918.517578 884.326477,917.428162 
	C882.707031,916.004333 881.549072,914.971802 880.198547,913.767578 
	C880.665955,913.152283 881.034363,912.369507 881.645691,911.909241 
	C886.898926,907.953918 886.473572,903.001160 884.337830,897.648071 
	C883.734497,896.136108 883.248962,894.525085 883.039124,892.916443 
	C881.405273,880.392090 879.588074,867.882874 878.369019,855.316406 
	C877.592651,847.312744 877.140625,839.238464 881.001770,831.534119 
	C882.003357,829.535706 881.949829,825.767822 880.684875,824.095520 
	C875.976501,817.871033 878.430908,812.851196 882.541992,808.078003 
	C885.310974,804.863098 885.440186,801.665039 883.021729,798.689819 
	C880.002441,794.975281 879.605835,790.949402 880.199219,786.548706 
	C884.696716,788.450317 889.194153,790.351929 894.233521,792.528809 
	C895.521240,793.077332 896.267151,793.350464 897.013062,793.623596 
	C897.176758,793.654724 897.340515,793.685913 897.822632,793.994019 
	C898.428955,794.176392 898.716980,794.081909 899.004944,793.987427 
	C911.851013,794.803589 923.122070,791.284241 932.722595,781.504883 
	C933.882263,780.252258 934.583557,779.399536 935.284912,778.546814 
	C937.308472,775.823853 939.332031,773.100891 941.593323,770.147339 
M887.515930,916.406616 
	C887.515930,916.406616 887.585632,916.519409 887.515930,916.406616 
z"/>
<path fill="#484C43" opacity="1.000000" stroke="none" 
	d="
M740.934326,817.176025 
	C736.104309,812.672546 731.158508,808.286133 726.466492,803.643311 
	C713.497192,790.809448 700.615356,777.886963 687.748474,764.950195 
	C685.787354,762.978455 684.090332,760.744080 682.558838,758.347961 
	C685.215820,759.992676 687.585205,761.920593 689.954590,763.848450 
	C690.396301,763.622314 690.838013,763.396179 691.279724,763.170044 
	C690.447083,760.446960 689.614441,757.723877 688.792786,755.036682 
	C682.113464,756.716614 682.068298,756.696228 678.377869,750.907043 
	C679.468689,749.898865 680.563965,748.886475 682.367981,747.219177 
	C676.077393,747.492676 676.085449,743.885742 677.394592,740.641724 
	C681.497986,730.473755 678.143127,722.019714 672.358765,713.747742 
	C669.190979,709.217651 666.031799,703.312622 669.236633,698.648804 
	C672.010620,694.612000 673.307068,690.617859 674.387573,686.240234 
	C676.878906,676.146912 676.980286,666.281189 671.669189,656.850525 
	C671.060608,655.770020 671.681396,654.027893 671.630127,652.596191 
	C671.525452,649.669067 672.508240,645.567444 670.971619,644.057068 
	C667.476135,640.621277 667.648254,637.166565 667.845581,632.961426 
	C667.994446,629.787720 666.363037,626.567871 666.191956,623.333252 
	C665.893311,617.686340 666.108765,612.012207 666.108765,605.686462 
	C665.829651,605.953430 666.304565,605.676025 666.518311,605.263367 
	C667.354980,603.648315 668.109314,601.990601 668.894165,600.348755 
	C667.470337,599.760925 666.042114,599.183289 664.624756,598.580322 
	C664.064331,598.342041 663.390259,598.175171 663.002808,597.757751 
	C660.610046,595.179626 661.232483,582.948425 663.290344,580.044312 
	C664.981201,577.658386 665.812073,574.662964 667.024170,571.937683 
	C671.001160,575.832397 674.978210,579.727112 679.383728,584.069763 
	C683.560547,588.289490 687.308960,592.061340 691.057312,595.833130 
	C694.739685,599.648376 698.422058,603.463623 702.529297,607.751953 
	C705.326355,610.807739 707.698547,613.390442 709.760864,616.124756 
	C707.849548,618.007568 705.882263,619.874512 708.655212,621.991455 
	C710.860168,623.674744 713.254517,623.765747 715.292847,621.163330 
	C717.704773,623.541809 719.819763,625.777710 721.629517,628.181030 
	C720.388794,630.219910 719.182129,632.008484 718.578186,633.981445 
	C717.537781,637.379822 719.242126,640.177673 722.366760,640.715881 
	C725.499390,641.255554 729.755127,642.342651 731.236694,637.347046 
	C732.931763,639.003906 734.347717,640.521118 735.462769,642.196899 
	C731.753418,644.109375 727.053101,644.732910 727.083740,649.861267 
	C727.106750,653.720581 727.878662,657.575317 728.320374,661.459778 
	C729.997742,660.948303 731.231873,660.571960 732.465942,660.195679 
	C732.731934,660.585266 732.997925,660.974915 733.263855,661.364502 
	C730.555542,664.112244 727.847229,666.859985 724.871277,669.879272 
	C725.776672,670.945435 726.686523,672.080750 727.663147,673.155396 
	C731.060730,676.894165 730.971619,678.669189 727.171997,681.995117 
	C723.969299,684.798706 724.048767,692.382324 727.314270,695.564941 
	C731.459595,699.605103 731.207764,701.539795 726.224121,704.407715 
	C725.414612,704.873535 724.724731,705.547241 724.249939,705.915344 
	C725.170837,710.219727 725.991821,714.057373 726.549500,716.664062 
	C726.926208,720.250854 726.365112,723.222595 727.596008,724.753479 
	C729.638733,727.293884 729.956421,729.333984 729.308228,732.410156 
	C728.968567,734.021973 730.313416,737.115540 731.719971,737.768616 
	C737.131226,740.280762 740.201660,746.037109 739.472107,752.319092 
	C738.637939,759.501648 737.862183,766.786316 738.178040,773.977600 
	C738.442505,779.997864 739.951355,786.049561 741.593506,791.895142 
	C742.836487,796.319641 742.503845,801.438721 746.915771,804.879822 
	C747.802124,805.571167 746.997192,809.380981 746.023254,811.261841 
	C744.859680,813.509033 742.676086,815.228149 740.934326,817.176025 
z"/>
<path fill="#6A6445" opacity="1.000000" stroke="none" 
	d="
M879.993530,786.304321 
	C879.605835,790.949402 880.002441,794.975281 883.021729,798.689819 
	C885.440186,801.665039 885.310974,804.863098 882.541992,808.078003 
	C878.430908,812.851196 875.976501,817.871033 880.684875,824.095520 
	C881.949829,825.767822 882.003357,829.535706 881.001770,831.534119 
	C877.140625,839.238464 877.592651,847.312744 878.369019,855.316406 
	C879.588074,867.882874 881.405273,880.392090 883.039124,892.916443 
	C883.248962,894.525085 883.734497,896.136108 884.337830,897.648071 
	C886.473572,903.001160 886.898926,907.953918 881.645691,911.909241 
	C881.034363,912.369507 880.665955,913.152283 880.198547,913.767578 
	C881.549072,914.971802 882.707031,916.004333 883.913452,917.365112 
	C877.029053,916.076721 869.888855,915.054810 863.204712,912.724609 
	C847.364258,907.202271 832.249084,900.055054 818.559143,890.186157 
	C815.109802,887.699524 811.694946,885.165039 808.379883,882.055420 
	C815.932495,880.345886 820.283569,876.120667 820.026001,870.761902 
	C819.854614,867.195862 820.308044,863.598999 820.497437,860.016785 
	C820.601929,858.041626 821.356201,855.849182 820.747681,854.134216 
	C818.733032,848.456543 815.946167,843.045288 814.068176,837.330444 
	C813.382812,835.244751 813.511353,831.426453 814.824951,830.410156 
	C819.757202,826.593933 819.375916,822.262085 818.179016,817.035461 
	C817.467468,813.928528 816.922180,809.641357 818.476868,807.379517 
	C822.551636,801.450867 821.380188,795.332153 820.413940,789.345398 
	C819.832520,785.743530 818.599854,782.768616 822.145630,780.091980 
	C822.837402,779.569885 823.056519,777.914673 822.907227,776.865601 
	C821.710327,768.452942 824.089844,760.334412 824.650085,752.078003 
	C825.033203,746.430969 828.030884,742.989197 832.056519,739.808716 
	C837.258728,744.774475 842.201721,749.581726 847.144653,754.389038 
	C847.822876,755.185730 848.500977,755.982422 849.572754,757.246948 
	C850.632141,758.245300 851.297974,758.775757 851.963806,759.306213 
	C861.238464,768.224121 870.513184,777.142090 879.993530,786.304321 
z"/>
<path fill="#5B5944" opacity="1.000000" stroke="none" 
	d="
M831.797241,739.650269 
	C828.030884,742.989197 825.033203,746.430969 824.650085,752.078003 
	C824.089844,760.334412 821.710327,768.452942 822.907227,776.865601 
	C823.056519,777.914673 822.837402,779.569885 822.145630,780.091980 
	C818.599854,782.768616 819.832520,785.743530 820.413940,789.345398 
	C821.380188,795.332153 822.551636,801.450867 818.476868,807.379517 
	C816.922180,809.641357 817.467468,813.928528 818.179016,817.035461 
	C819.375916,822.262085 819.757202,826.593933 814.824951,830.410156 
	C813.511353,831.426453 813.382812,835.244751 814.068176,837.330444 
	C815.946167,843.045288 818.733032,848.456543 820.747681,854.134216 
	C821.356201,855.849182 820.601929,858.041626 820.497437,860.016785 
	C820.308044,863.598999 819.854614,867.195862 820.026001,870.761902 
	C820.283569,876.120667 815.932495,880.345886 808.237305,881.749390 
	C800.924316,875.801758 793.745483,869.696350 786.853149,863.282959 
	C781.134338,857.961365 775.752991,852.277161 770.104736,846.094727 
	C769.990906,844.957947 769.994446,844.479980 770.205688,843.722229 
	C772.522400,842.491272 774.993896,841.937073 776.617859,840.454590 
	C777.772278,839.400635 778.752197,836.059753 778.159607,835.506165 
	C770.795715,828.626404 771.860962,818.775330 769.216370,810.340820 
	C767.462341,804.746643 767.776917,798.502625 767.193481,792.546753 
	C767.165710,792.263245 767.410217,791.953125 767.597412,791.479736 
	C768.856018,791.479736 770.166382,791.479736 771.113892,791.479736 
	C769.047424,789.014160 766.651001,786.826965 765.117798,784.146118 
	C763.415344,781.169189 762.291992,777.803650 761.309998,774.490662 
	C760.554077,771.940613 759.947998,769.188171 760.073364,766.563904 
	C760.495605,757.728577 768.048767,750.068542 764.463379,740.503845 
	C764.389648,740.307251 764.699707,739.873535 764.934204,739.669067 
	C768.131714,736.880798 766.892334,734.196350 764.939331,731.339966 
	C763.266846,728.893982 763.485718,726.719910 766.423584,725.183228 
	C767.111450,724.823425 767.463867,723.822144 768.324097,722.623352 
	C761.100342,722.012512 763.106262,717.014771 763.065430,713.175110 
	C763.019226,708.835999 765.930298,707.915955 769.491943,708.574951 
	C768.934692,700.858948 768.424561,693.525330 767.839539,686.197693 
	C767.792053,685.602051 767.178040,685.070740 766.920776,684.469543 
	C765.443726,681.017212 763.842102,677.603943 762.655579,674.052856 
	C762.394348,673.270874 763.640503,671.985291 764.192505,670.931580 
	C771.172302,677.891052 778.152161,684.850525 785.546875,692.281128 
	C787.096436,693.955872 788.211426,695.178894 789.368835,696.360352 
	C803.508057,710.793884 817.653442,725.221252 831.797241,739.650269 
z"/>
<path fill="#3E4543" opacity="1.000000" stroke="none" 
	d="
M667.001709,571.729004 
	C665.812073,574.662964 664.981201,577.658386 663.290344,580.044312 
	C661.232483,582.948425 660.610046,595.179626 663.002808,597.757751 
	C663.390259,598.175171 664.064331,598.342041 664.624756,598.580322 
	C666.042114,599.183289 667.470337,599.760925 668.894165,600.348755 
	C668.109314,601.990601 667.354980,603.648315 666.518311,605.263367 
	C666.304565,605.676025 665.829651,605.953430 666.108765,605.686462 
	C666.108765,612.012207 665.893311,617.686340 666.191956,623.333252 
	C666.363037,626.567871 667.994446,629.787720 667.845581,632.961426 
	C667.648254,637.166565 667.476135,640.621277 670.971619,644.057068 
	C672.508240,645.567444 671.525452,649.669067 671.630127,652.596191 
	C671.681396,654.027893 671.060608,655.770020 671.669189,656.850525 
	C676.980286,666.281189 676.878906,676.146912 674.387573,686.240234 
	C673.307068,690.617859 672.010620,694.612000 669.236633,698.648804 
	C666.031799,703.312622 669.190979,709.217651 672.358765,713.747742 
	C678.143127,722.019714 681.497986,730.473755 677.394592,740.641724 
	C676.085449,743.885742 676.077393,747.492676 682.367981,747.219177 
	C680.563965,748.886475 679.468689,749.898865 678.377869,750.907043 
	C682.068298,756.696228 682.113464,756.716614 688.792786,755.036682 
	C689.614441,757.723877 690.447083,760.446960 691.279724,763.170044 
	C690.838013,763.396179 690.396301,763.622314 689.954590,763.848450 
	C687.585205,761.920593 685.215820,759.992676 682.513916,758.011353 
	C678.096741,754.065430 674.012024,750.172852 669.559937,745.726562 
	C656.064636,731.641052 642.936890,718.109314 629.871216,704.189575 
	C630.182617,703.191895 630.321838,702.502197 630.697693,701.984192 
	C636.645020,693.785828 636.230164,684.643982 629.336060,676.863831 
	C625.795288,672.867981 623.381714,668.895508 626.913574,663.611145 
	C627.713013,662.414978 628.040466,660.823975 628.305115,659.363953 
	C629.311401,653.812317 630.702332,648.366028 624.290649,644.445984 
	C622.430725,643.308838 620.730652,639.411560 621.240356,637.341736 
	C623.159729,629.547058 620.069580,623.321106 617.109802,616.570007 
	C615.575806,613.071167 616.310608,608.439026 616.572021,604.354187 
	C616.690247,602.507690 618.673462,600.813049 618.910767,598.935791 
	C619.679077,592.859131 621.277344,586.720642 618.262329,580.670715 
	C617.849854,579.843140 618.865601,577.670715 619.837708,576.901001 
	C623.169800,574.262756 622.156921,571.611023 620.665710,568.546753 
	C619.882202,566.936890 619.164551,564.817627 619.550598,563.198608 
	C621.210205,556.238342 624.639526,549.503113 621.084595,542.132751 
	C620.752563,541.444397 621.385803,540.290527 621.570801,539.352783 
	C621.978516,539.663635 622.386169,539.974426 622.793884,540.285278 
	C625.148193,538.199524 627.502441,536.113770 630.122803,534.145813 
	C631.116455,534.890076 631.844177,535.516479 632.571838,536.142944 
	C636.095154,539.833679 639.618530,543.524353 643.560547,547.660095 
	C645.091614,549.156677 646.203979,550.208252 647.316406,551.259766 
	C651.463501,555.611389 655.610596,559.963013 659.892334,564.998718 
	C661.051941,566.441223 662.076782,567.199585 663.383789,568.094482 
	C664.759766,569.187866 665.853577,570.144714 666.947388,571.101562 
	C666.947388,571.101562 666.979309,571.520264 667.001709,571.729004 
z"/>
<path fill="#686245" opacity="1.000000" stroke="none" 
	d="
M815.038696,506.070038 
	C811.204895,510.032166 807.371155,513.994324 803.052490,518.120972 
	C802.265015,518.436584 802.192383,518.661926 802.349670,518.961487 
	C797.626709,523.713806 792.903687,528.466064 787.768555,533.664612 
	C786.437256,535.123047 785.518127,536.135315 784.599060,537.147522 
	C783.112610,538.458801 781.626160,539.770142 779.668945,541.547607 
	C778.642639,543.017334 778.087219,544.020813 777.191528,545.090698 
	C772.275696,546.252686 772.947632,549.841858 772.698730,553.335449 
	C769.894470,553.501770 767.440002,553.492249 764.965027,553.131836 
	C763.369568,551.595947 761.003662,550.737610 760.355835,549.169617 
	C757.481506,542.212097 753.098083,536.686157 746.962158,532.348267 
	C744.588196,530.669922 744.221252,528.637207 746.899780,526.251465 
	C749.040283,524.344849 750.383057,521.603577 747.235291,519.029053 
	C746.758118,518.638794 746.246826,518.032654 746.158264,517.463135 
	C744.495117,506.769012 740.221924,496.352722 742.860718,485.173553 
	C743.166687,483.877563 741.933960,482.257660 741.556091,480.752411 
	C740.870422,478.022003 739.885010,475.283508 739.757812,472.514740 
	C739.537964,467.726196 740.605957,462.776428 739.744995,458.152893 
	C739.096802,454.671783 736.867676,450.975708 734.270813,448.498474 
	C731.173279,445.543579 726.789795,443.982269 723.263916,441.405914 
	C722.033203,440.506592 721.695801,438.384674 721.088135,436.523132 
	C732.833740,424.519135 744.441711,412.813049 756.049683,401.106995 
	C758.153076,399.135956 760.256409,397.164917 762.872559,395.332092 
	C767.516724,393.942352 771.390503,394.884521 775.457764,396.159363 
	C779.740356,397.501678 780.972717,400.084229 781.112671,404.258087 
	C781.219177,407.434357 781.820190,410.836273 783.165771,413.681580 
	C786.675232,421.102692 788.371399,428.763123 789.275024,436.931091 
	C789.849915,442.127167 789.962219,448.047333 794.831421,452.279877 
	C796.662048,453.871185 798.465149,458.436035 797.562134,459.694580 
	C794.496582,463.967194 795.953979,468.185394 795.955566,472.511078 
	C795.957642,478.173523 800.409485,481.317017 803.215576,485.235443 
	C805.023254,487.759613 808.631470,488.948181 811.261902,490.958893 
	C811.995911,491.519958 812.755615,493.241058 812.427673,493.810638 
	C809.571106,498.772858 813.399414,502.167725 815.038696,506.070038 
z"/>
<path fill="#323C42" opacity="1.000000" stroke="none" 
	d="
M629.856750,534.028015 
	C627.502441,536.113770 625.148193,538.199524 622.793884,540.285278 
	C622.386169,539.974426 621.978516,539.663635 621.570801,539.352783 
	C621.385803,540.290527 620.752563,541.444397 621.084595,542.132751 
	C624.639526,549.503113 621.210205,556.238342 619.550598,563.198608 
	C619.164551,564.817627 619.882202,566.936890 620.665710,568.546753 
	C622.156921,571.611023 623.169800,574.262756 619.837708,576.901001 
	C618.865601,577.670715 617.849854,579.843140 618.262329,580.670715 
	C621.277344,586.720642 619.679077,592.859131 618.910767,598.935791 
	C618.673462,600.813049 616.690247,602.507690 616.572021,604.354187 
	C616.310608,608.439026 615.575806,613.071167 617.109802,616.570007 
	C620.069580,623.321106 623.159729,629.547058 621.240356,637.341736 
	C620.730652,639.411560 622.430725,643.308838 624.290649,644.445984 
	C630.702332,648.366028 629.311401,653.812317 628.305115,659.363953 
	C628.040466,660.823975 627.713013,662.414978 626.913574,663.611145 
	C623.381714,668.895508 625.795288,672.867981 629.336060,676.863831 
	C636.230164,684.643982 636.645020,693.785828 630.697693,701.984192 
	C630.321838,702.502197 630.182617,703.191895 629.558960,704.039978 
	C627.293335,702.465332 625.401917,700.652405 623.510559,698.839478 
	C607.364624,682.128357 591.218628,665.417297 574.942200,648.392395 
	C580.444702,649.075439 584.011169,646.784119 585.737549,641.358398 
	C587.390442,636.163818 590.106873,631.067627 584.829468,626.137512 
	C583.576965,624.967468 583.134399,622.655090 582.838684,620.785889 
	C581.792419,614.172180 579.397583,607.468140 583.472290,601.004272 
	C583.559998,600.865173 583.682617,600.684998 583.658142,600.547363 
	C582.629028,594.769287 583.295898,587.726074 580.163696,583.499146 
	C574.730530,576.167175 575.746277,568.801270 576.555542,561.226624 
	C577.319031,554.079956 579.176758,547.051941 580.488037,539.959778 
	C580.656067,539.051331 580.807800,537.538208 580.333313,537.203308 
	C573.884888,532.652344 578.088257,527.099854 578.727539,521.880737 
	C579.394409,516.437012 581.766113,511.173431 579.787354,505.454376 
	C578.671021,502.227905 578.246948,498.738647 577.728577,495.334595 
	C577.105957,491.246582 576.298645,487.730804 572.128967,485.236176 
	C569.371765,483.586639 570.707886,479.762115 574.745850,478.140656 
	C575.932861,478.889984 576.448608,479.516998 576.986572,480.500397 
	C579.508362,483.243683 582.008118,485.630524 584.731628,488.220032 
	C599.922546,503.624481 614.889648,518.826233 629.856750,534.028015 
z"/>
<path fill="#5A5844" opacity="1.000000" stroke="none" 
	d="
M720.950439,436.821106 
	C721.695801,438.384674 722.033203,440.506592 723.263916,441.405914 
	C726.789795,443.982269 731.173279,445.543579 734.270813,448.498474 
	C736.867676,450.975708 739.096802,454.671783 739.744995,458.152893 
	C740.605957,462.776428 739.537964,467.726196 739.757812,472.514740 
	C739.885010,475.283508 740.870422,478.022003 741.556091,480.752411 
	C741.933960,482.257660 743.166687,483.877563 742.860718,485.173553 
	C740.221924,496.352722 744.495117,506.769012 746.158264,517.463135 
	C746.246826,518.032654 746.758118,518.638794 747.235291,519.029053 
	C750.383057,521.603577 749.040283,524.344849 746.899780,526.251465 
	C744.221252,528.637207 744.588196,530.669922 746.962158,532.348267 
	C753.098083,536.686157 757.481506,542.212097 760.355835,549.169617 
	C761.003662,550.737610 763.369568,551.595947 764.509277,553.172974 
	C734.913086,553.564941 705.752075,553.564941 676.136658,553.564941 
	C676.136658,549.177490 676.143921,545.718689 676.135559,542.259888 
	C676.071106,515.505615 676.003540,488.751312 676.007202,461.572998 
	C676.022461,459.433746 675.967468,457.718506 675.987305,455.540955 
	C676.159058,450.030548 676.256042,444.982483 676.551147,439.763611 
	C676.847107,439.260986 676.944946,438.929138 677.042786,438.597290 
	C678.856445,440.290131 680.670105,441.982971 682.908386,444.117676 
	C684.876892,446.065460 686.420837,447.571320 687.964722,449.077209 
	C689.662659,450.991425 691.360535,452.905670 693.525024,455.315735 
	C695.287354,456.950623 696.583069,458.089661 698.811829,460.048859 
	C706.424927,452.061279 713.687683,444.441193 720.950439,436.821106 
z"/>
<path fill="#807347" opacity="1.000000" stroke="none" 
	d="
M832.680176,326.130066 
	C835.268921,328.895935 838.633057,331.483429 839.586060,334.770020 
	C841.091003,339.960236 845.093689,342.787994 848.123596,346.514893 
	C850.412170,349.329956 851.858521,351.865784 849.842102,355.467834 
	C848.115234,358.552612 849.258667,360.691589 851.932312,363.135773 
	C856.882751,367.661560 860.723999,372.865204 861.241272,380.290192 
	C861.528442,384.411591 864.208008,388.384766 865.924072,392.375427 
	C866.366760,393.405029 867.503906,394.154175 867.878052,395.192200 
	C870.370422,402.105896 872.957031,408.997711 875.093872,416.024078 
	C877.312866,423.320526 878.261414,423.962463 885.892883,422.227753 
	C889.872742,421.323059 893.149536,422.470093 894.992676,426.923340 
	C879.111633,443.136383 863.074951,459.004395 846.404053,474.882874 
	C840.396301,467.059265 835.380310,458.945709 829.542053,451.474762 
	C824.356995,444.839691 823.762390,438.353424 827.442383,431.067078 
	C829.555298,426.883575 827.840759,422.405029 823.726135,420.347992 
	C822.020447,419.495300 820.025391,418.510742 819.072876,417.008545 
	C817.029785,413.786255 815.172424,410.324707 813.964172,406.718201 
	C810.758057,397.148743 807.674683,387.520538 805.065857,377.775543 
	C803.609619,372.336395 799.248962,369.934875 794.571167,372.834015 
	C793.633789,373.414978 792.431519,373.549713 791.403076,374.006470 
	C788.961975,375.090698 786.246338,375.855804 784.201477,377.462433 
	C781.213989,379.809692 778.899658,383.007477 775.938965,385.397491 
	C774.300171,386.720490 771.929565,387.137054 769.888855,387.962158 
	C783.513855,374.557220 797.151001,361.164612 810.758972,347.742371 
	C817.990173,340.609833 825.170715,333.425934 832.680176,326.130066 
z"/>
<path fill="#515244" opacity="1.000000" stroke="none" 
	d="
M764.037415,670.630493 
	C763.640503,671.985291 762.394348,673.270874 762.655579,674.052856 
	C763.842102,677.603943 765.443726,681.017212 766.920776,684.469543 
	C767.178040,685.070740 767.792053,685.602051 767.839539,686.197693 
	C768.424561,693.525330 768.934692,700.858948 769.491943,708.574951 
	C765.930298,707.915955 763.019226,708.835999 763.065430,713.175110 
	C763.106262,717.014771 761.100342,722.012512 768.324097,722.623352 
	C767.463867,723.822144 767.111450,724.823425 766.423584,725.183228 
	C763.485718,726.719910 763.266846,728.893982 764.939331,731.339966 
	C766.892334,734.196350 768.131714,736.880798 764.934204,739.669067 
	C764.699707,739.873535 764.389648,740.307251 764.463379,740.503845 
	C768.048767,750.068542 760.495605,757.728577 760.073364,766.563904 
	C759.947998,769.188171 760.554077,771.940613 761.309998,774.490662 
	C762.291992,777.803650 763.415344,781.169189 765.117798,784.146118 
	C766.651001,786.826965 769.047424,789.014160 771.113892,791.479736 
	C770.166382,791.479736 768.856018,791.479736 767.597412,791.479736 
	C767.410217,791.953125 767.165710,792.263245 767.193481,792.546753 
	C767.776917,798.502625 767.462341,804.746643 769.216370,810.340820 
	C771.860962,818.775330 770.795715,828.626404 778.159607,835.506165 
	C778.752197,836.059753 777.772278,839.400635 776.617859,840.454590 
	C774.993896,841.937073 772.522400,842.491272 769.831421,843.751343 
	C769.000793,844.087708 768.752014,844.115173 768.503235,844.142639 
	C767.594971,843.333191 766.686646,842.523682 766.010986,841.375000 
	C767.391357,838.561218 769.792297,835.862427 769.398682,833.663879 
	C768.778809,830.201660 765.144409,829.535828 761.768677,830.064697 
	C760.814514,830.214111 759.910156,830.681091 758.568726,831.003418 
	C757.048828,831.021484 755.943237,831.038635 754.837585,831.055786 
	C750.296326,826.627319 745.755127,822.198792 741.074097,817.473145 
	C742.676086,815.228149 744.859680,813.509033 746.023254,811.261841 
	C746.997192,809.380981 747.802124,805.571167 746.915771,804.879822 
	C742.503845,801.438721 742.836487,796.319641 741.593506,791.895142 
	C739.951355,786.049561 738.442505,779.997864 738.178040,773.977600 
	C737.862183,766.786316 738.637939,759.501648 739.472107,752.319092 
	C740.201660,746.037109 737.131226,740.280762 731.719971,737.768616 
	C730.313416,737.115540 728.968567,734.021973 729.308228,732.410156 
	C729.956421,729.333984 729.638733,727.293884 727.596008,724.753479 
	C726.365112,723.222595 726.926208,720.250854 726.549500,716.664062 
	C725.991821,714.057373 725.170837,710.219727 724.249939,705.915344 
	C724.724731,705.547241 725.414612,704.873535 726.224121,704.407715 
	C731.207764,701.539795 731.459595,699.605103 727.314270,695.564941 
	C724.048767,692.382324 723.969299,684.798706 727.171997,681.995117 
	C730.971619,678.669189 731.060730,676.894165 727.663147,673.155396 
	C726.686523,672.080750 725.776672,670.945435 724.871277,669.879272 
	C727.847229,666.859985 730.555542,664.112244 733.263855,661.364502 
	C732.997925,660.974915 732.731934,660.585266 732.465942,660.195679 
	C731.231873,660.571960 729.997742,660.948303 728.320374,661.459778 
	C727.878662,657.575317 727.106750,653.720581 727.083740,649.861267 
	C727.053101,644.732910 731.753418,644.109375 735.745728,642.329590 
	C736.835510,642.667908 737.341248,643.032166 737.846985,643.396423 
	C742.899109,648.697083 747.951233,653.997681 752.786255,659.631287 
	C751.827332,660.401855 751.085571,660.839478 750.343811,661.277161 
	C751.329773,662.701233 752.068604,664.505310 753.412354,665.379272 
	C754.028381,665.779968 755.833191,664.352844 757.098877,663.754578 
	C759.360046,665.946167 761.621155,668.137756 764.037415,670.630493 
z"/>
<path fill="#726946" opacity="1.000000" stroke="none" 
	d="
M769.605408,388.136963 
	C771.929565,387.137054 774.300171,386.720490 775.938965,385.397491 
	C778.899658,383.007477 781.213989,379.809692 784.201477,377.462433 
	C786.246338,375.855804 788.961975,375.090698 791.403076,374.006470 
	C792.431519,373.549713 793.633789,373.414978 794.571167,372.834015 
	C799.248962,369.934875 803.609619,372.336395 805.065857,377.775543 
	C807.674683,387.520538 810.758057,397.148743 813.964172,406.718201 
	C815.172424,410.324707 817.029785,413.786255 819.072876,417.008545 
	C820.025391,418.510742 822.020447,419.495300 823.726135,420.347992 
	C827.840759,422.405029 829.555298,426.883575 827.442383,431.067078 
	C823.762390,438.353424 824.356995,444.839691 829.542053,451.474762 
	C835.380310,458.945709 840.396301,467.059265 846.123352,475.034973 
	C836.200195,485.381226 825.923645,495.585785 815.342896,505.930176 
	C813.399414,502.167725 809.571106,498.772858 812.427673,493.810638 
	C812.755615,493.241058 811.995911,491.519958 811.261902,490.958893 
	C808.631470,488.948181 805.023254,487.759613 803.215576,485.235443 
	C800.409485,481.317017 795.957642,478.173523 795.955566,472.511078 
	C795.953979,468.185394 794.496582,463.967194 797.562134,459.694580 
	C798.465149,458.436035 796.662048,453.871185 794.831421,452.279877 
	C789.962219,448.047333 789.849915,442.127167 789.275024,436.931091 
	C788.371399,428.763123 786.675232,421.102692 783.165771,413.681580 
	C781.820190,410.836273 781.219177,407.434357 781.112671,404.258087 
	C780.972717,400.084229 779.740356,397.501678 775.457764,396.159363 
	C771.390503,394.884521 767.516724,393.942352 763.173645,395.189880 
	C765.081970,392.710236 767.201965,390.510986 769.605408,388.136963 
z"/>
<path fill="none" opacity="1.000000" stroke="none" 
	d="
M630.122803,534.145813 
	C614.889648,518.826233 599.922546,503.624481 584.599731,487.883728 
	C581.817505,484.944519 579.390930,482.544250 576.964417,480.143982 
	C576.448608,479.516998 575.932861,478.889984 575.130737,478.144836 
	C573.609863,476.630981 572.375366,475.235260 571.043213,473.170349 
	C568.477783,467.027222 565.039795,462.581879 558.831116,461.073700 
	C546.068237,448.124939 533.292114,435.189178 520.545532,422.224335 
	C500.241028,401.572144 479.956177,380.900635 459.273712,359.860779 
	C458.596497,359.306702 458.308594,359.129120 458.020691,358.951538 
	C457.552307,358.357178 457.083954,357.762848 456.343567,357.071411 
	C437.349091,338.033630 419.984680,317.531403 396.371552,304.151978 
	C382.909790,296.524475 368.977509,289.960022 353.620728,286.972717 
	C349.627655,286.195923 345.676544,285.203339 341.353333,284.100037 
	C341.585388,280.053772 344.436340,278.844025 349.473175,280.331604 
	C356.945312,282.538300 364.800934,283.926666 371.792145,287.173309 
	C383.404144,292.565704 394.514679,299.057892 405.716400,305.302185 
	C409.281921,307.289764 412.777557,309.623260 415.770142,312.379395 
	C427.694244,323.361206 439.553375,334.422363 451.159973,345.737793 
	C464.512543,358.755310 477.682251,371.965729 490.716888,385.301941 
	C497.982056,392.735168 504.707764,400.692780 511.868774,408.231506 
	C517.994263,414.680145 524.385498,420.876831 530.673767,427.170380 
	C544.075745,440.583527 557.487244,453.987274 570.894836,467.394867 
	C580.492737,476.992737 590.219116,486.466339 599.650513,496.225067 
	C608.264221,505.137817 616.534424,514.381836 625.007263,523.431763 
	C627.817139,526.432983 630.914734,529.175110 633.580994,532.292175 
	C634.155457,532.963806 633.437012,534.741455 632.942993,536.076294 
	C631.844177,535.516479 631.116455,534.890076 630.122803,534.145813 
z"/>
<path fill="none" opacity="1.000000" stroke="none" 
	d="
M948.944641,744.008789 
	C948.681702,745.141418 948.418762,746.274048 948.015259,747.727661 
	C946.584595,746.734009 944.992798,745.590942 944.111877,744.043274 
	C943.539062,743.036865 944.000183,741.441284 944.000183,740.109619 
	C943.999939,648.559082 943.999939,557.008545 944.000000,465.458008 
	C944.000000,458.219940 943.746277,450.967682 944.149292,443.752136 
	C944.276184,441.481262 946.165222,439.308807 947.617065,437.045654 
	C948.268433,439.629730 948.795593,442.259338 948.796936,444.889221 
	C948.846252,542.282349 948.846985,639.675537 948.860107,737.959351 
	C948.892212,740.569641 948.918457,742.289185 948.944641,744.008789 
z"/>
<path fill="none" opacity="1.000000" stroke="none" 
	d="
M563.553589,803.036865 
	C563.087585,770.593567 563.029175,738.130676 562.975525,705.667786 
	C562.965332,699.517578 562.974060,693.367310 562.974060,686.477478 
	C524.124207,686.477478 485.581482,686.477478 446.581451,686.414795 
	C445.774231,681.566833 449.294189,682.037598 452.218262,682.027405 
	C468.542725,681.970764 484.867462,682.000000 501.192108,682.000000 
	C517.516724,681.999939 533.841431,681.978638 550.165955,682.016113 
	C553.918640,682.024719 557.686829,682.059570 561.419067,682.399353 
	C565.654175,682.785034 568.006470,686.465942 568.002502,692.072327 
	C567.991943,706.977783 568.105164,721.884338 567.955811,736.788330 
	C567.880188,744.330994 567.085327,751.869141 567.086670,759.409241 
	C567.088013,767.028503 567.896545,774.646729 567.927856,782.267151 
	C567.952332,788.219666 567.466553,794.188721 566.864685,800.115723 
	C566.757568,801.170288 564.972839,802.054443 563.553589,803.036865 
z"/>
<path fill="none" opacity="1.000000" stroke="none" 
	d="
M675.937012,461.997040 
	C676.003540,488.751312 676.071106,515.505615 676.135559,542.259888 
	C676.143921,545.718689 676.136658,549.177490 676.136658,553.564941 
	C705.752075,553.564941 734.913086,553.564941 764.529785,553.523865 
	C767.440002,553.492249 769.894470,553.501770 773.100037,553.408325 
	C777.508301,553.411987 781.165466,553.518433 784.822632,553.624878 
	C785.467896,557.501892 783.175415,558.040894 780.073669,558.025452 
	C767.519287,557.963013 754.963135,557.890442 742.410339,558.044617 
	C735.797241,558.125732 729.187073,558.988708 722.580322,558.933777 
	C708.239197,558.814636 693.902100,558.266357 679.561096,558.037048 
	C674.937073,557.963135 673.013062,555.883057 672.965881,551.317749 
	C672.704834,526.079834 672.946533,500.813141 671.719482,475.619476 
	C671.175415,464.448547 671.986206,453.556244 673.072998,442.574493 
	C673.192810,441.363495 674.273499,440.247589 675.396851,439.239929 
	C675.952271,439.649567 676.108276,439.830292 676.353088,439.934448 
	C676.256042,444.982483 676.159058,450.030548 675.648376,455.581696 
	C671.368530,458.542633 673.602234,460.275848 675.937012,461.997040 
z"/>
<path fill="none" opacity="1.000000" stroke="none" 
	d="
M300.045807,283.529358 
	C297.575256,284.537842 295.149017,285.183533 292.360352,285.994324 
	C289.593231,286.539551 287.188477,286.919739 284.055176,287.311218 
	C279.231018,288.948578 275.135437,290.574677 271.039856,292.200775 
	C262.130707,296.873779 252.762817,300.851410 244.407455,306.363800 
	C226.754333,318.010406 213.232727,333.701050 203.219696,352.321472 
	C199.339844,359.536530 195.884262,366.979736 192.067001,374.659241 
	C188.808334,374.487793 188.632111,372.749542 189.850235,370.311249 
	C192.782913,364.440979 195.402145,358.396149 198.633270,352.696960 
	C204.205902,342.867676 209.631760,332.963776 218.595383,325.476196 
	C223.510757,321.370239 227.717270,316.359009 231.939606,311.492401 
	C239.758331,302.480652 250.169922,297.283661 260.502045,292.152405 
	C266.744781,289.052094 273.955139,287.887878 280.166473,284.740265 
	C285.852600,281.858795 291.673706,280.662018 297.792114,280.005829 
	C300.354034,279.731110 301.174683,280.767517 300.045807,283.529358 
z"/>
<path fill="none" opacity="1.000000" stroke="none" 
	d="
M721.088135,436.523163 
	C713.687683,444.441193 706.424927,452.061279 698.811829,460.048859 
	C696.583069,458.089661 695.287354,456.950623 693.797607,455.477936 
	C697.487732,452.507721 701.643372,450.188232 705.186951,447.154022 
	C709.564392,443.405884 713.387268,439.016541 717.531128,434.987946 
	C726.831055,425.946777 736.186584,416.962891 745.507202,407.943085 
	C747.866028,405.660400 750.093506,403.231720 752.568970,401.086670 
	C753.242310,400.503204 754.599487,400.708923 755.846191,400.829712 
	C744.441711,412.813049 732.833740,424.519135 721.088135,436.523163 
z"/>
<path fill="none" opacity="1.000000" stroke="none" 
	d="
M832.056519,739.808716 
	C817.653442,725.221252 803.508057,710.793884 789.368835,696.360352 
	C788.211426,695.178894 787.096436,693.955872 785.829590,692.437256 
	C787.421509,692.871948 789.529663,693.217712 790.809509,694.434570 
	C801.952454,705.030090 813.053589,715.674561 823.949768,726.522949 
	C831.803101,734.341797 839.361694,742.459229 846.934937,750.552795 
	C847.665466,751.333557 847.567383,752.889587 847.499268,754.237366 
	C842.201721,749.581726 837.258728,744.774475 832.056519,739.808716 
z"/>
<path fill="none" opacity="1.000000" stroke="none" 
	d="
M623.197754,698.984863 
	C625.401917,700.652405 627.293335,702.465332 629.496887,704.427856 
	C642.936890,718.109314 656.064636,731.641052 669.356873,745.479126 
	C668.103455,745.109558 666.401672,744.735352 665.312866,743.710083 
	C656.743469,735.641296 648.255432,727.484863 639.816650,719.279053 
	C634.847534,714.447083 629.900574,709.580750 625.194885,704.497314 
	C623.947754,703.150024 623.629639,700.942688 623.197754,698.984863 
z"/>
<path fill="#515244" opacity="1.000000" stroke="none" 
	d="
M730.957581,637.207397 
	C729.755127,642.342651 725.499390,641.255554 722.366760,640.715881 
	C719.242126,640.177673 717.537781,637.379822 718.578186,633.981445 
	C719.182129,632.008484 720.388794,630.219910 721.904175,628.306396 
	C722.978088,628.886169 723.471985,629.507874 723.980469,630.514771 
	C723.690430,634.542969 725.929626,635.195984 728.858765,635.038086 
	C729.297302,635.327393 729.735901,635.616760 730.493225,636.288086 
	C730.860474,636.849182 730.908997,637.028259 730.957581,637.207397 
z"/>
<path fill="none" opacity="1.000000" stroke="none" 
	d="
M316.118164,281.000000 
	C313.267792,281.000000 310.895782,281.000000 307.704010,281.000000 
	C312.395782,276.021790 327.892059,275.899811 333.778564,281.000000 
	C327.226410,281.000000 321.911469,281.000000 316.118164,281.000000 
z"/>
<path fill="none" opacity="1.000000" stroke="none" 
	d="
M546.531494,789.794067 
	C550.926758,793.704956 554.954712,797.777222 559.129272,802.127441 
	C557.794312,806.022644 554.595459,805.328369 552.091187,804.580627 
	C551.264160,804.333618 551.591370,801.057800 550.876831,799.386597 
	C549.974731,797.276489 548.472290,795.431274 547.376404,793.392517 
	C546.808105,792.335144 546.558044,791.106689 546.531494,789.794067 
z"/>
<path fill="#5B5944" opacity="1.000000" stroke="none" 
	d="
M758.982910,831.002441 
	C759.910156,830.681091 760.814514,830.214111 761.768677,830.064697 
	C765.144409,829.535828 768.778809,830.201660 769.398682,833.663879 
	C769.792297,835.862427 767.391357,838.561218 765.851135,841.112427 
	C765.458679,841.189087 765.126221,841.044983 764.999084,840.560425 
	C762.908936,837.051331 760.945923,834.026917 758.982910,831.002441 
z"/>
<path fill="none" opacity="1.000000" stroke="none" 
	d="
M461.045593,870.000610 
	C466.916748,863.658630 472.977020,857.615601 479.347748,851.409302 
	C479.430878,852.643250 479.696991,854.499390 478.894745,855.361694 
	C474.305634,860.294312 469.519287,865.050049 464.641693,869.700012 
	C463.946991,870.362427 462.391724,870.122131 461.045593,870.000610 
z"/>
<path fill="#5A5844" opacity="1.000000" stroke="none" 
	d="
M784.788696,553.314697 
	C781.165466,553.518433 777.508301,553.411987 773.449829,553.232605 
	C772.947632,549.841858 772.275696,546.252686 777.458252,545.289978 
	C779.025940,546.289307 779.986694,547.155884 780.947510,548.022400 
	C782.216553,549.683105 783.485596,551.343811 784.788696,553.314697 
z"/>
<path fill="none" opacity="1.000000" stroke="none" 
	d="
M225.034927,867.285278 
	C230.181061,871.726746 235.314163,876.574402 240.552872,881.721863 
	C237.924698,883.417114 235.821671,882.748413 233.830658,880.411072 
	C231.717651,877.930603 229.003036,875.940430 227.037308,873.365112 
	C225.877899,871.846069 225.662094,869.606873 225.034927,867.285278 
z"/>
<path fill="none" opacity="1.000000" stroke="none" 
	d="
M932.086792,415.083740 
	C937.715393,416.313965 941.111511,420.435242 944.038757,425.492188 
	C943.099487,426.169617 942.003967,426.961548 941.106628,426.779083 
	C938.231628,426.194397 932.418091,418.706329 932.086792,415.083740 
z"/>
<path fill="none" opacity="1.000000" stroke="none" 
	d="
M691.085205,595.495422 
	C687.308960,592.061340 683.560547,588.289490 679.692932,584.250000 
	C679.952576,583.482239 680.324646,582.554443 680.711548,582.548218 
	C684.710815,582.483887 691.761108,591.115173 691.085205,595.495422 
z"/>
<path fill="none" opacity="1.000000" stroke="none" 
	d="
M710.070679,615.973083 
	C707.698547,613.390442 705.326355,610.807739 702.812622,607.951050 
	C703.713440,607.288574 705.360718,606.276672 705.703674,606.609314 
	C708.744507,609.559265 713.178955,611.668091 712.388794,617.214844 
	C711.373657,616.956970 710.722168,616.465027 710.070679,615.973083 
z"/>
<path fill="none" opacity="1.000000" stroke="none" 
	d="
M901.576843,422.045288 
	C905.845337,419.323547 910.497864,416.581390 915.534302,413.815826 
	C912.718323,418.999268 907.709473,421.139221 901.576843,422.045288 
z"/>
<path fill="#807347" opacity="1.000000" stroke="none" 
	d="
M1015.306152,880.867920 
	C1013.552368,876.040955 1017.261536,872.069702 1024.729980,871.028687 
	C1021.954895,874.271057 1018.782349,877.500916 1015.306152,880.867920 
z"/>
<path fill="#515244" opacity="1.000000" stroke="none" 
	d="
M709.760864,616.124756 
	C710.722168,616.465027 711.373657,616.956970 712.282349,617.621948 
	C713.140442,618.476318 713.741394,619.157654 714.630859,620.190186 
	C714.919373,620.541260 714.995911,621.020813 714.995911,621.020813 
	C713.254517,623.765747 710.860168,623.674744 708.655212,621.991455 
	C705.882263,619.874512 707.849548,618.007568 709.760864,616.124756 
z"/>
<path fill="none" opacity="1.000000" stroke="none" 
	d="
M715.292847,621.163330 
	C714.995911,621.020813 714.919373,620.541260 714.883667,620.301086 
	C721.391296,620.308228 724.310425,623.034180 724.684448,629.854797 
	C724.423096,630.218811 723.965881,630.129578 723.965881,630.129578 
	C723.471985,629.507874 722.978088,628.886169 722.209473,628.139038 
	C719.819763,625.777710 717.704773,623.541809 715.292847,621.163330 
z"/>
<path fill="none" opacity="1.000000" stroke="none" 
	d="
M647.728638,551.167969 
	C646.203979,550.208252 645.091614,549.156677 643.853638,547.844360 
	C645.297058,546.725891 647.675049,544.760803 648.289307,545.209595 
	C650.488159,546.816345 651.335083,549.204285 647.728638,551.167969 
z"/>
<path fill="#484C43" opacity="1.000000" stroke="none" 
	d="
M758.568726,831.003418 
	C760.945923,834.026917 762.908936,837.051331 764.919922,840.397461 
	C761.659241,837.715637 758.350647,834.712097 754.939819,831.382202 
	C755.943237,831.038635 757.048828,831.021484 758.568726,831.003418 
z"/>
<path fill="#5B5944" opacity="1.000000" stroke="none" 
	d="
M756.976440,663.475098 
	C755.833191,664.352844 754.028381,665.779968 753.412354,665.379272 
	C752.068604,664.505310 751.329773,662.701233 750.343811,661.277161 
	C751.085571,660.839478 751.827332,660.401855 752.944824,659.936768 
	C754.498291,661.004822 755.676147,662.100220 756.976440,663.475098 
z"/>
<path fill="none" opacity="1.000000" stroke="none" 
	d="
M482.818481,848.572327 
	C484.696686,846.147827 486.720306,844.055420 489.015472,841.819275 
	C489.682922,841.939148 490.413666,842.191589 490.422882,842.468079 
	C490.514587,845.221375 485.984528,849.076660 482.818481,848.572327 
z"/>
<path fill="#807347" opacity="1.000000" stroke="none" 
	d="
M948.194519,748.345215 
	C952.122437,752.508972 948.744507,756.103638 946.333130,759.942749 
	C946.664490,756.256409 947.358276,752.508179 948.194519,748.345215 
z"/>
<path fill="none" opacity="1.000000" stroke="none" 
	d="
M731.236694,637.347046 
	C730.908997,637.028259 730.860474,636.849182 730.733948,636.402771 
	C734.927673,636.186523 738.123596,637.455383 737.888306,642.978882 
	C737.341248,643.032166 736.835510,642.667908 736.046753,642.170959 
	C734.347717,640.521118 732.931763,639.003906 731.236694,637.347046 
z"/>
<path fill="none" opacity="1.000000" stroke="none" 
	d="
M191.402161,376.325623 
	C191.138321,378.561920 190.445633,380.672363 189.405518,382.954346 
	C185.880447,378.060669 186.156799,377.061249 191.402161,376.325623 
z"/>
<path fill="none" opacity="1.000000" stroke="none" 
	d="
M667.082031,570.787842 
	C665.853577,570.144714 664.759766,569.187866 663.275269,567.829834 
	C662.575073,566.957397 662.265503,566.486145 661.955933,566.014893 
	C666.024963,564.822266 667.267273,565.875305 667.082031,570.787842 
z"/>
<path fill="none" opacity="1.000000" stroke="none" 
	d="
M182.448181,764.011230 
	C183.215149,765.415100 183.602997,766.835876 183.924316,768.631470 
	C182.592316,768.383179 181.326843,767.760071 180.061371,767.136902 
	C180.730576,766.100586 181.399811,765.064331 182.448181,764.011230 
z"/>
<path fill="none" opacity="1.000000" stroke="none" 
	d="
M688.009033,448.727020 
	C686.420837,447.571320 684.876892,446.065460 683.209961,444.261749 
	C687.973389,442.981567 688.911072,443.814789 688.009033,448.727020 
z"/>
<path fill="none" opacity="1.000000" stroke="none" 
	d="
M784.785217,537.527039 
	C785.518127,536.135315 786.437256,535.123047 787.626221,533.962769 
	C788.344604,535.224243 788.793030,536.633728 789.241455,538.043213 
	C787.818115,537.997681 786.394714,537.952148 784.785217,537.527039 
z"/>
<path fill="none" opacity="1.000000" stroke="none" 
	d="
M781.219971,547.810547 
	C779.986694,547.155884 779.025940,546.289307 777.798462,545.223511 
	C778.087219,544.020813 778.642639,543.017334 779.503845,541.831177 
	C780.370483,543.631897 780.931458,545.615356 781.219971,547.810547 
z"/>
<path fill="#484C43" opacity="1.000000" stroke="none" 
	d="
M723.980469,630.514771 
	C723.965881,630.129578 724.423096,630.218811 724.651855,630.262573 
	C726.119873,631.694824 727.359192,633.083313 728.728638,634.754883 
	C725.929626,635.195984 723.690430,634.542969 723.980469,630.514771 
z"/>
<path fill="none" opacity="1.000000" stroke="none" 
	d="
M455.886993,874.863403 
	C456.728577,873.530579 457.995239,872.244202 459.568481,870.818176 
	C460.192261,873.356201 459.418518,875.115173 455.886993,874.863403 
z"/>
<path fill="none" opacity="1.000000" stroke="none" 
	d="
M935.111572,778.229370 
	C934.583557,779.399536 933.882263,780.252258 932.933533,781.222900 
	C932.401672,780.485718 932.117310,779.630798 931.832886,778.775818 
	C932.868042,778.487854 933.903137,778.199829 935.111572,778.229370 
z"/>
<path fill="none" opacity="1.000000" stroke="none" 
	d="
M183.371826,413.277893 
	C183.815506,414.324738 183.816727,415.261597 183.712662,416.536957 
	C182.445679,416.366394 181.283981,415.857361 180.122269,415.348328 
	C181.057968,414.621521 181.993668,413.894745 183.371826,413.277893 
z"/>
<path fill="#223141" opacity="1.000000" stroke="none" 
	d="
M437.270233,506.817993 
	C438.205933,507.254608 439.281952,507.968842 440.070923,508.889587 
	C438.992798,508.429291 438.201660,507.762421 437.270233,506.817993 
z"/>
<path fill="none" opacity="1.000000" stroke="none" 
	d="
M492.711212,838.792969 
	C492.810822,838.131592 493.315826,837.540222 494.086853,836.820923 
	C494.710815,837.130371 495.068726,837.567810 495.426636,838.005127 
	C494.656616,838.291077 493.886627,838.577026 492.711212,838.792969 
z"/>
<path fill="#484C43" opacity="1.000000" stroke="none" 
	d="
M661.692993,565.916504 
	C662.265503,566.486145 662.575073,566.957397 662.993164,567.693359 
	C662.076782,567.199585 661.051941,566.441223 660.030273,565.300293 
	C660.499023,565.217834 660.964600,565.517944 661.692993,565.916504 
z"/>
<path fill="#807347" opacity="1.000000" stroke="none" 
	d="
M998.318970,893.966309 
	C998.762207,893.338440 999.524353,892.676819 1000.639587,892.006714 
	C1000.207703,892.642944 999.422791,893.287720 998.318970,893.966309 
z"/>
<path fill="none" opacity="1.000000" stroke="none" 
	d="
M896.914978,793.303345 
	C896.267151,793.350464 895.521240,793.077332 894.604248,792.509766 
	C895.227722,792.471313 896.022278,792.727173 896.914978,793.303345 
z"/>
<path fill="#8C7C48" opacity="1.000000" stroke="none" 
	d="
M676.551147,439.763611 
	C676.108276,439.830292 675.952271,439.649567 675.844116,439.213867 
	C676.141052,438.783173 676.479065,438.530884 676.929932,438.437958 
	C676.944946,438.929138 676.847107,439.260986 676.551147,439.763611 
z"/>
<path fill="none" opacity="1.000000" stroke="none" 
	d="
M851.937866,758.931763 
	C851.297974,758.775757 850.632141,758.245300 849.839600,757.414124 
	C850.445862,757.594788 851.178894,758.076111 851.937866,758.931763 
z"/>
<path fill="#484C43" opacity="1.000000" stroke="none" 
	d="
M562.123901,804.632568 
	C562.055298,804.064331 562.185547,803.698425 562.535461,803.135742 
	C562.611023,803.570923 562.466980,804.202881 562.123901,804.632568 
z"/>
<path fill="#484C43" opacity="1.000000" stroke="none" 
	d="
M768.623779,844.442566 
	C768.752014,844.115173 769.000793,844.087708 769.623779,844.031128 
	C769.994446,844.479980 769.990906,844.957947 769.969727,845.794189 
	C769.549500,845.682434 769.146851,845.212463 768.623779,844.442566 
z"/>
<path fill="#6A6445" opacity="1.000000" stroke="none" 
	d="
M898.748657,793.915894 
	C898.716980,794.081909 898.428955,794.176392 898.052734,794.091919 
	C898.140503,793.890137 898.316406,793.867310 898.748657,793.915894 
z"/>
<path fill="#C9A84C" opacity="1.000000" stroke="none" 
	d="
M306.777496,746.007385 
	C306.522369,745.944092 306.375427,745.645813 306.342896,745.113831 
	C306.600098,745.177551 306.742889,745.474976 306.777496,746.007385 
z"/>
<path fill="none" opacity="1.000000" stroke="none" 
	d="
M802.477173,518.887817 
	C802.192383,518.661926 802.265015,518.436584 802.764282,518.318726 
	C802.882507,518.537109 802.763733,518.691223 802.477173,518.887817 
z"/>
<path fill="#182940" opacity="1.000000" stroke="none" 
	d="
M271.027740,292.569275 
	C275.135437,290.574677 279.231018,288.948578 283.678040,287.481384 
	C282.736237,292.244659 277.084167,296.200531 272.426270,295.502197 
	C271.841034,295.414459 271.480347,293.829224 271.027740,292.569275 
z"/>
<path fill="#807347" opacity="1.000000" stroke="none" 
	d="
M949.316895,743.936768 
	C948.918457,742.289185 948.892212,740.569641 948.927124,738.424072 
	C952.078125,739.612427 951.731445,741.637268 949.316895,743.936768 
z"/>
<path fill="none" opacity="1.000000" stroke="none" 
	d="
M559.004639,461.362366 
	C565.039795,462.581879 568.477783,467.027222 570.915222,472.883301 
	C566.982666,469.393921 563.080383,465.522491 559.004639,461.362366 
z"/>
<path fill="#182940" opacity="1.000000" stroke="none" 
	d="
M458.129059,359.179108 
	C458.308594,359.129120 458.596497,359.306702 458.966736,359.731567 
	C458.778503,359.788147 458.507965,359.597412 458.129059,359.179108 
z"/>
<path fill="#223141" opacity="1.000000" stroke="none" 
	d="
M452.388824,457.463135 
	C451.941833,457.347717 451.667816,457.066132 451.414948,456.766724 
	C451.408478,456.759033 451.634308,456.555237 451.751801,456.442902 
	C452.022705,456.726837 452.293640,457.010742 452.388824,457.463135 
z"/>
<path fill="#6A6445" opacity="1.000000" stroke="none" 
	d="
M887.550781,916.463013 
	C887.585632,916.519409 887.515930,916.406616 887.550781,916.463013 
z"/>
<path fill="#223141" opacity="1.000000" stroke="none" 
	d="
M576.986572,480.500397 
	C579.390930,482.544250 581.817505,484.944519 584.375916,487.681091 
	C582.008118,485.630524 579.508362,483.243683 576.986572,480.500397 
z"/>
<path fill="none" opacity="1.000000" stroke="none" 
	d="
M676.007202,461.572998 
	C673.602234,460.275848 671.368530,458.542633 675.573608,456.044067 
	C675.967468,457.718506 676.022461,459.433746 676.007202,461.572998 
z"/>
</svg>